<svg width="128" height="128" viewBox="0 0 128 128" fill="none" xmlns="http://www.w3.org/2000/svg">
<path d="M36.379 53.64C36.379 55.2 36.547 56.465 36.844 57.39C37.18 58.316 37.602 59.328 38.191 60.422C38.398 60.758 38.484 61.094 38.484 61.391C38.484 61.809 38.23 62.231 37.684 62.652L35.031 64.422C34.652 64.672 34.273 64.801 33.938 64.801C33.516 64.801 33.094 64.59 32.672 64.211C32.1057 63.6 31.5981 62.9371 31.156 62.231C30.6875 61.4209 30.2524 60.5919 29.852 59.746C26.57 63.621 22.442 65.559 17.472 65.559C13.937 65.559 11.117 64.547 9.05101 62.527C6.98801 60.504 5.93701 57.809 5.93701 54.441C5.93701 50.863 7.19901 47.957 9.77001 45.77C12.336 43.578 15.746 42.484 20.086 42.484C21.516 42.484 22.988 42.609 24.546 42.82C26.106 43.031 27.707 43.367 29.391 43.746V40.672C29.391 37.472 28.715 35.242 27.411 33.938C26.061 32.633 23.788 32 20.546 32C19.073 32 17.558 32.168 15.999 32.547C14.4512 32.9158 12.9316 33.3947 11.452 33.98C10.776 34.273 10.272 34.441 9.97901 34.527C9.68301 34.609 9.47201 34.652 9.30401 34.652C8.71401 34.652 8.42101 34.23 8.42101 33.348V31.285C8.42101 30.609 8.50301 30.105 8.71401 29.809C8.92401 29.516 9.30401 29.223 9.89401 28.926C11.366 28.168 13.136 27.536 15.198 27.031C17.261 26.484 19.452 26.231 21.768 26.231C26.776 26.231 30.44 27.367 32.8 29.641C35.116 31.914 36.292 35.367 36.292 40V53.64H36.379ZM19.285 60.043C20.672 60.043 22.105 59.789 23.621 59.285C25.137 58.777 26.484 57.852 27.621 56.59C28.293 55.79 28.801 54.906 29.051 53.895C29.305 52.883 29.473 51.665 29.473 50.23V48.465C28.1975 48.1516 26.905 47.9116 25.602 47.746C24.2882 47.5803 22.9653 47.4968 21.641 47.496C18.821 47.496 16.758 48.043 15.367 49.18C13.98 50.316 13.305 51.914 13.305 54.02C13.305 56 13.809 57.473 14.863 58.484C15.875 59.535 17.348 60.043 19.285 60.043ZM53.094 64.59C52.336 64.59 51.832 64.465 51.496 64.168C51.156 63.914 50.863 63.328 50.609 62.528L40.715 29.98C40.465 29.137 40.335 28.59 40.335 28.293C40.335 27.621 40.672 27.243 41.348 27.243H45.473C46.273 27.243 46.82 27.367 47.117 27.664C47.453 27.914 47.707 28.504 47.957 29.304L55.031 57.18L61.601 29.305C61.809 28.465 62.063 27.915 62.398 27.665C62.738 27.41 63.328 27.242 64.086 27.242H67.453C68.253 27.242 68.801 27.367 69.137 27.664C69.473 27.914 69.77 28.504 69.937 29.304L76.59 57.516L83.875 29.305C84.125 28.465 84.422 27.915 84.715 27.665C85.051 27.41 85.602 27.242 86.359 27.242H90.273C90.949 27.242 91.328 27.578 91.328 28.293C91.328 28.503 91.285 28.715 91.242 28.969C91.199 29.223 91.117 29.559 90.949 30.019L80.801 62.57C80.547 63.41 80.254 63.957 79.914 64.21C79.578 64.465 79.031 64.633 78.316 64.633H74.696C73.895 64.633 73.348 64.503 73.012 64.211C72.672 63.914 72.379 63.367 72.211 62.527L65.684 35.367L59.199 62.484C58.989 63.328 58.739 63.875 58.399 64.168C58.062 64.465 57.473 64.59 56.715 64.59H53.094ZM107.199 65.727C105.012 65.727 102.82 65.473 100.715 64.969C98.609 64.465 96.969 63.914 95.875 63.285C95.199 62.906 94.738 62.485 94.57 62.105C94.4041 61.7337 94.3176 61.3317 94.316 60.925V58.777C94.316 57.895 94.652 57.473 95.286 57.473C95.536 57.473 95.789 57.516 96.043 57.602C96.293 57.684 96.672 57.852 97.093 58.02C98.5815 58.6737 100.135 59.1684 101.727 59.496C103.41 59.832 105.051 60 106.738 60C109.391 60 111.453 59.535 112.883 58.61C114.316 57.684 115.074 56.336 115.074 54.61C115.074 53.43 114.695 52.465 113.938 51.664C113.18 50.864 111.746 50.148 109.684 49.473L103.578 47.578C100.504 46.609 98.23 45.18 96.844 43.285C95.454 41.43 94.738 39.367 94.738 37.18C94.738 35.41 95.118 33.852 95.875 32.504C96.6267 31.1495 97.6603 29.972 98.906 29.051C100.168 28.086 101.602 27.367 103.286 26.863C104.969 26.359 106.738 26.148 108.59 26.148C109.516 26.148 110.484 26.191 111.41 26.316C112.379 26.441 113.262 26.609 114.148 26.777C114.988 26.988 115.789 27.199 116.547 27.453C117.305 27.707 117.895 27.957 118.317 28.211C118.907 28.547 119.328 28.883 119.578 29.261C119.832 29.601 119.957 30.063 119.957 30.652V32.632C119.957 33.516 119.621 33.98 118.988 33.98C118.652 33.98 118.105 33.809 117.391 33.473C114.988 32.379 112.293 31.832 109.305 31.832C106.906 31.832 105.012 32.211 103.707 33.012C102.398 33.809 101.727 35.032 101.727 36.758C101.727 37.938 102.148 38.949 102.988 39.746C103.832 40.546 105.391 41.348 107.621 42.062L113.601 43.957C116.633 44.926 118.821 46.273 120.125 48C121.43 49.727 122.063 51.707 122.063 53.895C122.063 55.707 121.683 57.348 120.969 58.777C120.211 60.211 119.199 61.473 117.895 62.484C116.59 63.535 115.031 64.293 113.223 64.844C111.328 65.43 109.348 65.727 107.199 65.727Z" fill="black"/>
<path d="M118 73.3479C113.568 73.4109 108.336 74.3999 104.379 77.1799C103.156 78.0629 103.367 79.2419 104.715 79.0739C109.223 78.5269 119.155 77.3479 120.925 79.621C122.695 81.851 118.949 91.241 117.262 95.411C116.758 96.671 117.852 97.1799 118.988 96.2109C126.398 89.9799 128.336 76.9689 126.82 75.0739C126.063 74.1489 122.432 73.2839 118 73.3479ZM1.63003 75.8589C0.703033 75.9749 0.283033 77.095 1.26203 77.98C17.77 92.882 39.621 101.852 63.875 101.852C81.18 101.852 101.305 96.4219 115.156 86.1919C117.429 84.504 115.453 81.9379 113.136 82.9879C97.602 89.5579 80.715 92.758 65.348 92.758C42.57 92.758 20.548 86.4849 2.69503 76.1249C2.30503 75.8939 1.94003 75.8209 1.63103 75.8589H1.63003Z" fill="#FF9900"/>
</svg>
