<svg width="33" height="32" viewBox="0 0 33 32" fill="none" xmlns="http://www.w3.org/2000/svg">
<path d="M1.16675 16C1.16675 7.43959 8.10633 0.5 16.6667 0.5C25.2272 0.5 32.1667 7.43959 32.1667 16C32.1667 24.5604 25.2272 31.5 16.6667 31.5C8.10633 31.5 1.16675 24.5604 1.16675 16Z" stroke="black"/>
<path d="M20.6668 9.33325H18.6668C17.7828 9.33325 16.9349 9.68444 16.3098 10.3096C15.6847 10.9347 15.3335 11.7825 15.3335 12.6666V14.6666H13.3335V17.3333H15.3335V22.6666H18.0002V17.3333H20.0002L20.6668 14.6666H18.0002V12.6666C18.0002 12.4898 18.0704 12.3202 18.1954 12.1952C18.3204 12.0702 18.49 11.9999 18.6668 11.9999H20.6668V9.33325Z" stroke="black" stroke-linecap="round" stroke-linejoin="round"/>
</svg>
