<svg width="99" height="99" viewBox="0 0 99 99" fill="none" xmlns="http://www.w3.org/2000/svg">
<g clip-path="url(#clip0_43_209)">
<path d="M43.9413 98.6798C42.4695 98.5043 40.9257 98.2776 40.5119 98.1755C39.9029 98.0312 39.2904 97.9023 38.675 97.7888C37.9721 97.6525 37.2747 97.4892 36.5844 97.2992C33.3785 96.3804 33.1488 96.3054 30.7318 95.3169C28.5081 94.4105 24.4112 92.2928 23.0098 91.3291C22.6261 91.063 22.2673 90.8488 22.2124 90.8488C22.1582 90.8488 21.261 90.2177 20.2184 89.4465C13.5901 84.5406 8.61377 78.5851 5.01806 71.2499C4.39931 69.9899 3.89426 68.8723 3.89426 68.7671C3.89426 68.6635 3.78288 68.3765 3.64676 68.1352C3.366 67.6333 2.96613 66.552 2.64361 65.4344C2.50494 64.9595 2.34362 64.4916 2.16021 64.0321C2.00939 63.6764 1.88796 63.2432 1.88796 63.0684C1.88796 62.8929 1.73714 62.3221 1.55306 61.7961C1.36898 61.2741 1.22048 60.6576 1.22048 60.4272C1.22048 60.1982 1.07585 59.4062 0.897188 58.6668C0.462516 56.8415 0 52.1135 0 49.4637C0 46.817 0.462516 42.0889 0.897188 40.2644C1.07508 39.5242 1.22048 38.7175 1.22048 38.47C1.22048 38.2218 1.33263 37.7353 1.46798 37.3872C1.6072 37.0407 1.78509 36.4181 1.86708 36.0043C1.95216 35.5905 2.14552 34.8774 2.30252 34.4149L2.75885 33.0799C3.09375 32.0799 3.40467 31.2338 3.55317 30.9043C3.63825 30.7202 3.97006 29.9684 4.29335 29.2336C4.8162 28.0464 5.93691 25.8073 6.59201 24.6356C6.831 24.2063 6.92149 24.064 8.21468 22.043C10.2635 18.8348 13.7649 14.8431 17.0241 11.9976C18.1727 10.9944 22.0097 8.08167 22.1822 8.08167C22.2301 8.08167 22.5921 7.86434 22.9889 7.59827C24.0307 6.90063 25.0524 6.30818 26.3843 5.6407C26.8624 5.40426 27.3358 5.15852 27.8043 4.90362C28.0247 4.77677 28.4385 4.58651 30.5632 3.63518C31.0311 3.42635 31.5354 3.23609 32.9887 2.72794C33.3089 2.61656 33.9524 2.38066 34.4118 2.20819C34.8743 2.03648 35.418 1.89417 35.6207 1.89417C35.8202 1.89417 36.3454 1.75495 36.787 1.58325C37.2279 1.41077 38.0284 1.21432 38.569 1.1478C39.1073 1.08438 39.8228 0.933562 40.1584 0.815226C40.491 0.700757 41.4037 0.552257 42.1856 0.486515C43.2047 0.394439 44.2212 0.274511 45.2337 0.126866C47.3127 -0.177868 51.8327 -0.177868 53.89 0.126866C54.8618 0.266312 55.8369 0.381076 56.8144 0.471046C57.5515 0.532148 58.4912 0.686062 58.905 0.812905C59.3188 0.936655 60.035 1.09134 60.4944 1.1478C60.9538 1.20891 61.7273 1.39917 62.213 1.57397C62.7003 1.75186 63.2525 1.89417 63.4428 1.89417C63.633 1.89417 64.0259 2.00013 64.3129 2.13316C64.6029 2.2631 65.2163 2.48044 65.6788 2.61656C66.1382 2.75578 66.9263 3.03035 67.4345 3.23299C67.9388 3.43486 68.6155 3.70092 68.9388 3.82158C69.5344 4.04587 73.9352 6.24785 74.5339 6.62297C79.3918 9.65252 81.8908 11.6318 85.2506 15.1029C89.3019 19.2903 91.9911 23.2782 94.7283 29.1486C94.9217 29.5631 95.2171 30.1765 95.3865 30.5083C95.5528 30.8439 95.692 31.2368 95.692 31.3823C95.692 31.5292 95.8312 31.9701 96.0029 32.3637C96.4685 33.4334 96.8669 34.6508 97.0548 35.5812C97.1476 36.0376 97.3201 36.6022 97.4377 36.835C97.556 37.067 97.6945 37.6572 97.7494 38.1405C97.8035 38.6232 97.9636 39.4152 98.0997 39.8955C98.8886 42.6265 99.2808 50.6726 98.8036 54.2311C98.662 55.2884 98.5019 56.5669 98.4478 57.0712C98.3565 57.9351 97.9002 60.1681 97.5104 61.6693L97.1082 63.2587C96.3502 66.3192 94.4769 70.6791 92.1899 74.7125C91.2834 76.3136 88.2446 80.6433 87.6707 81.1506C87.6189 81.1955 87.3621 81.4987 87.1022 81.8181C86.8423 82.1414 86.0086 83.0448 85.2537 83.8244C81.9271 87.2592 79.2441 89.3831 74.5339 92.3083C73.9754 92.6555 69.2381 94.9696 68.3525 95.3293C67.8931 95.5134 67.1259 95.8243 66.6487 96.0177C66.1745 96.2087 65.6455 96.3688 65.4792 96.3719C65.3129 96.3742 64.8752 96.5227 64.5062 96.7006C64.1381 96.8785 63.6694 97.027 63.4613 97.0301C63.2556 97.0332 62.6546 97.1786 62.1256 97.3534C61.5973 97.5313 60.8626 97.7223 60.4936 97.7788C60.1255 97.8368 59.3374 97.9938 58.7387 98.1268C58.1408 98.2598 56.3333 98.5197 54.7269 98.7038C51.1434 99.1218 47.5229 99.1137 43.9413 98.6798ZM47.5788 89.0119C47.8108 88.8309 48.0498 88.4705 48.1132 88.2175C48.2524 87.6583 70.7239 42.6079 71.147 42.0433C71.5035 41.5661 71.5368 40.8019 71.2104 40.5328C71.0387 40.3882 68.887 40.3425 63.1434 40.3518C58.8354 40.3611 55.2134 40.3642 55.0951 40.3611C54.9203 40.3549 54.8839 37.4762 54.9017 25.146C54.9141 16.7798 54.8746 9.85826 54.8143 9.76235C54.754 9.6649 54.5181 9.58678 54.2884 9.58678C53.9651 9.58678 53.8142 9.726 53.6155 10.2117C53.2403 11.1151 52.2039 13.1663 47.1588 22.9618C46.1108 24.9947 45.0654 27.0288 44.0225 29.0643C43.1284 30.8138 41.7177 33.5602 40.8924 35.1667C38.6711 39.485 36.4544 43.8057 34.2424 48.1287C30.427 55.5816 29.9653 56.4702 29.8013 56.6667C29.4842 57.0503 29.3117 57.9351 29.4904 58.2677C29.6528 58.5724 29.9769 58.5848 38.0315 58.5725C42.6357 58.567 46.4333 58.591 46.4728 58.6266C46.5787 58.7356 46.5393 87.4835 46.4302 88.1688C46.3583 88.6189 46.4063 88.8572 46.612 89.0629C46.9678 89.4195 47.0652 89.4164 47.5788 89.0119Z" fill="#049688"/>
</g>
<defs>
<clipPath id="clip0_43_209">
<rect width="99" height="99" fill="white"/>
</clipPath>
</defs>
</svg>
