<svg width="100" height="100" viewBox="0 0 100 100" fill="none" xmlns="http://www.w3.org/2000/svg">
<g clip-path="url(#clip0_43_216)">
<path d="M0 0V100H100V0H0ZM91.4109 10.5821V54.6006C91.4109 59.2143 92.0213 64.3019 91.3761 68.8651C90.0423 78.3159 83.9017 86.6207 74.9996 90.2475C69.9146 92.3195 64.7471 92.1778 59.3552 92.1778H12.1168C11.582 92.1778 10.4499 92.3926 10.0456 91.9735C9.61428 91.5239 9.81601 90.4466 9.81601 89.8771V43.5577C9.81601 37.5737 9.77514 31.801 12.2785 26.2265C15.647 18.7251 22.5145 13.1141 30.521 11.2603C35.9903 9.99426 41.9578 10.5821 47.5462 10.5821H91.4109ZM21.7797 80.368H58.7422C64.6418 80.368 70.8067 80.8662 75.3022 76.2265C76.2816 75.2053 77.1381 74.073 77.8542 72.8527C79.9489 69.3051 79.7541 65.3244 79.7541 61.349V24.0805C79.7541 23.684 79.8958 22.9336 79.6437 22.598C79.3637 22.2258 78.4742 22.3936 78.0672 22.3936H40.797C36.4555 22.3936 32.3687 22.2728 28.5281 24.6474C25.003 26.8256 22.418 30.8862 21.8128 34.9703C21.4571 37.372 21.7789 40.0553 21.7789 42.4856V80.3689M37.4241 57.5153V76.0734C37.4241 76.4412 37.5285 77.0821 37.1937 77.3429C36.8233 77.6333 35.8773 77.4534 35.4303 77.4534H27.1464C26.7499 77.4534 25.9986 77.596 25.6639 77.3429C25.2917 77.0629 25.4595 76.1743 25.4595 75.7665V40.4909C25.4595 36.8303 25.3622 33.3017 27.6707 30.2149C31.1358 25.5804 36.006 25.6134 41.257 25.6134H72.6988C73.6657 25.6134 75.3161 25.2917 76.2091 25.6647C76.8221 25.9213 76.5325 27.6638 76.5325 28.2211V35.2756C76.5325 35.8086 76.7969 37.2355 76.2091 37.4998C75.5343 37.8032 74.3483 37.5763 73.6179 37.5763H45.5524C43.8647 37.5763 41.6596 37.2007 40.031 37.6493C37.405 38.3719 36.4746 42.7726 37.3476 45.0924C37.6476 45.8924 38.5771 45.7054 39.2649 45.7054H66.7183C67.3234 45.7054 68.286 45.5211 68.8486 45.7567C69.4625 46.0133 69.1721 47.7558 69.1721 48.3131V55.2145C69.1721 55.7362 69.4346 57.2188 68.8486 57.464C68.1391 57.7605 66.8713 57.5153 66.1052 57.5153H59.663H37.4241Z" fill="#4DA8ED"/>
</g>
<defs>
<clipPath id="clip0_43_216">
<rect width="100" height="100" fill="white"/>
</clipPath>
</defs>
</svg>
