<svg width="100" height="100" viewBox="0 0 100 100" fill="none" xmlns="http://www.w3.org/2000/svg">
<path d="M97.4648 40.1422L97.3265 39.7891L83.9609 4.90783C83.6889 4.22403 83.2072 3.64396 82.5851 3.2508C81.9628 2.86433 81.2368 2.67815 80.5053 2.71741C79.7738 2.75667 79.0719 3.01947 78.4945 3.47033C77.9235 3.93409 77.5094 4.56265 77.3086 5.27033L68.2844 32.8813H31.7414L22.7164 5.27033C22.5206 4.55907 22.1056 3.9276 21.5304 3.46564C20.953 3.01479 20.2512 2.75198 19.5196 2.71272C18.7881 2.67347 18.0622 2.85964 17.4398 3.24611C16.8192 3.641 16.3381 4.22053 16.064 4.90314L2.67341 39.7688L2.5406 40.1219C-1.41174 50.4492 1.94451 62.1469 10.7726 68.8063L10.8187 68.8422L10.9414 68.9289L31.3015 84.1758L41.3742 91.7992L47.5101 96.432C48.2279 96.9769 49.1043 97.2718 50.0054 97.2718C50.9066 97.2718 51.783 96.9769 52.5008 96.432L58.6367 91.7992L68.7094 84.1758L89.1922 68.8367L89.243 68.7961C98.05 62.1352 101.401 50.4586 97.4648 40.1422Z" fill="#E24329"/>
<path d="M97.4648 40.1422L97.3266 39.7891C90.8139 41.1259 84.6769 43.8845 79.3539 47.868L50 70.0641C59.9961 77.6266 68.6984 84.1969 68.6984 84.1969L89.1813 68.8578L89.232 68.8172C98.0531 62.1555 101.409 50.4672 97.4648 40.1422Z" fill="#FC6D26"/>
<path d="M31.3016 84.196L41.3742 91.8195L47.5102 96.4523C48.228 96.9971 49.1043 97.292 50.0055 97.292C50.9066 97.292 51.783 96.9971 52.5008 96.4523L58.6367 91.8195L68.7094 84.196C68.7094 84.196 59.9969 77.6054 50.0008 70.0632C43.7639 74.7691 37.5308 79.48 31.3016 84.196Z" fill="#FCA326"/>
<path d="M20.6406 47.868C15.3218 43.8768 9.18632 41.111 2.67341 39.7688L2.5406 40.1219C-1.41174 50.4493 1.94451 62.1469 10.7726 68.8063L10.8187 68.8422L10.9414 68.929L31.3015 84.1758L50 70.043L20.6406 47.868Z" fill="#FC6D26"/>
</svg>
