<svg width="128" height="128" viewBox="0 0 128 128" fill="none" xmlns="http://www.w3.org/2000/svg">
<path d="M80.1429 42.9038H80.5429L80.3429 42.7038L94.3429 28.7038V28.4038C82.5429 18.0038 66.2429 14.4038 51.1429 18.9038C36.0429 23.4038 24.4429 35.4038 20.2429 50.6038C20.4429 50.5038 20.7429 50.4038 21.0429 50.4038C26.2429 47.0038 32.4429 45.0038 38.9429 45.0038C41.1429 45.0038 43.2429 45.2038 45.3429 45.6038C45.4429 45.5038 45.5429 45.5038 45.6429 45.5038C54.6429 35.6038 69.8429 34.4038 80.2429 42.9038H80.1429Z" fill="#EA4535"/>
<path d="M107.643 50.4038C105.343 41.9038 100.543 34.2038 93.8428 28.3038L79.5428 42.5038C85.5428 47.4038 89.0428 54.8038 88.8428 62.5038V65.0038C105.743 65.0038 105.743 90.2038 88.8428 90.2038H63.4428V110.204H63.3428L63.4428 110.404H88.8428C103.443 110.504 116.343 101.104 120.643 87.3038C124.943 73.5038 119.643 58.5038 107.643 50.4038Z" fill="#557EBF"/>
<path d="M38.5429 110.504H64.8429V90.3039H38.5429C36.6429 90.3039 34.8429 89.9039 33.1429 89.2039L17.9429 103.804V104.004C23.9429 108.304 31.1429 110.604 38.6429 110.604L38.5429 110.504Z" fill="#36A852"/>
<path d="M39.7428 44.5038C24.8428 44.6038 11.6428 53.8038 6.84284 67.3038C2.04284 80.9038 6.84284 95.8038 18.6428 104.604L34.2428 89.7038C25.6428 86.0038 23.6428 75.2038 30.2428 68.9038C36.8428 62.5038 48.0428 64.5038 51.9428 72.7038L67.5428 57.8038C60.9428 49.5038 50.6428 44.6038 39.7428 44.7038V44.5038Z" fill="#F9BC15"/>
</svg>
