<svg width="28" height="28" viewBox="0 0 28 28" fill="none" xmlns="http://www.w3.org/2000/svg">
<g id="Group">
<path id="Vector" d="M13.6894 8.68634H14.8469L15.2281 9.85857L16.0821 12.5234L18.0513 18.5872H16.7808L16.0468 16.2949H12.419L11.6991 18.5872H10.4851L13.6894 8.68634Z" fill="white"/>
<path id="Vector 2" d="M13.8525 14.2903H14.7367L14.2652 13.0741L13.8525 14.2903Z" stroke="#296193"/>
<path id="Vector_2" d="M26.6643 24.1976C26.3355 21.0646 25.4495 18.0128 24.0564 15.2158C24.3158 14.8827 24.4716 14.4602 24.4716 14.0007C24.4716 13.5414 24.316 13.1191 24.0568 12.7862C25.0733 10.7504 25.8187 8.59035 26.2766 6.34225C26.3535 5.9646 26.1191 5.5941 25.7529 5.51479C25.3865 5.43526 25.0277 5.67736 24.9508 6.05492C24.5229 8.15617 23.8293 10.1762 22.8848 12.0818C22.788 12.066 22.6889 12.0575 22.5879 12.0575C22.4612 12.0575 22.3375 12.0706 22.2178 12.0953C20.3713 9.41391 18.034 7.10789 15.3528 5.32622C18.1543 3.8403 21.2313 2.9496 24.3851 2.70872C24.6737 3.40066 25.3409 3.88646 26.1163 3.88646C27.155 3.88646 28 3.01474 28 1.94323C28 0.87172 27.155 0 26.1163 0C25.2918 0 24.5898 0.549479 24.3352 1.31193C20.705 1.58166 17.1695 2.66531 13.9991 4.48941C11.6224 3.12122 9.06341 2.17105 6.3856 1.66558C6.01802 1.59587 5.66474 1.8475 5.59739 2.22713C5.53006 2.60673 5.7738 2.97076 6.14177 3.04024C8.41516 3.46938 10.5987 4.23693 12.6476 5.32587C9.96439 7.10886 7.62546 9.41703 5.77816 12.1011C5.65031 12.0727 5.51782 12.0575 5.38188 12.0575C5.29076 12.0575 5.20124 12.0645 5.11354 12.0775C3.82323 9.466 2.99906 6.62111 2.687 3.70046C3.32499 3.38885 3.76744 2.71846 3.76744 1.94323C3.76744 0.87172 2.92241 0 1.88372 0C0.845025 0 0 0.87172 0 1.94323C0 2.81815 0.56351 3.55963 1.3357 3.80233C1.6635 6.92723 2.54549 9.97111 3.93179 12.7618C3.66113 13.0984 3.49816 13.5302 3.49816 14.0007C3.49816 14.4709 3.66096 14.9026 3.93137 15.2391C2.93931 17.2311 2.20621 19.3421 1.74835 21.5376C1.66967 21.9149 1.90237 22.2865 2.26807 22.3677C2.63393 22.4488 2.99407 22.2088 3.07271 21.8315C3.50195 19.7734 4.18694 17.7933 5.11303 15.9238C5.20089 15.9368 5.29058 15.9439 5.38188 15.9439C5.51792 15.9439 5.65047 15.9286 5.7784 15.9002C7.62561 18.5835 9.96428 20.891 12.6472 22.6738C9.84566 24.1597 6.76867 25.0504 3.61487 25.2913C3.32624 24.5993 2.65904 24.1135 1.88372 24.1135C0.845025 24.1135 0 24.9852 0 26.0568C0 27.1283 0.845025 28 1.88372 28C2.7082 28 3.41016 27.4505 3.66483 26.6881C7.295 26.4183 10.8305 25.3347 14.0009 23.5106C16.3989 24.8911 18.9819 25.8458 21.6855 26.3477C22.0541 26.416 22.4059 26.1636 22.4721 25.7838C22.5384 25.404 22.2936 25.0407 21.9255 24.9724C19.6277 24.5458 17.4217 23.7739 15.3523 22.6741C18.0335 20.8926 20.3707 18.5869 22.2175 15.906C22.3373 15.9307 22.4611 15.9439 22.5879 15.9439C22.6887 15.9439 22.7877 15.9355 22.8843 15.9196C24.1758 18.5321 25.0007 21.378 25.3129 24.2995C24.675 24.6111 24.2325 25.2815 24.2325 26.0567C24.2325 27.1283 25.0775 28 26.1162 28C27.1549 28 28 27.1283 28 26.0567C28 25.1818 27.4365 24.4403 26.6643 24.1976ZM14 21.8963C11.2161 20.1702 8.79588 17.8571 6.91184 15.1323C7.13414 14.8133 7.26561 14.4226 7.26561 14.0007C7.26561 13.5786 7.1341 13.1879 6.91171 12.8689C8.79566 10.1435 11.2159 7.82991 14 6.10364C16.7767 7.82528 19.1915 10.131 21.0732 12.847C20.8415 13.1699 20.7042 13.569 20.7042 14.0007C20.7042 14.4323 20.8414 14.8314 21.0731 15.1542C19.1912 17.8695 16.7765 20.1749 14 21.8963Z" fill="white"/>
</g>
</svg>
