<svg width="100" height="100" viewBox="0 0 100 100" fill="none" xmlns="http://www.w3.org/2000/svg">
<g clip-path="url(#clip0_44_237)">
<path d="M78 3H93V18H78V3ZM93 73.3275C93 78.39 91.8112 95.0738 77.0925 100.136L63 93C73.5225 88.41 78 81 78 73.3275C78 62.7225 78 29.25 78 29.25L93 29.2575C93 29.2575 93 61.9313 93 73.3275ZM51.75 3V26.6325C49.9912 25.9163 46.2 25.7775 44.3325 25.7775C30.2738 25.7775 18 33.0413 18 51.75C18 74.1338 34.89 77.9888 46.6875 77.9888C51.345 77.9888 61.6875 77.5313 66.75 76.065V3H51.75ZM46.5338 65.4975C39.9 65.4975 33 62.4863 33 51.75C33 41.0138 39.9 38.7413 46.5338 38.7413C48.1538 38.7413 49.9762 39.045 51.75 39.45V64.7888C49.98 65.19 48.1575 65.4975 46.5338 65.4975Z" fill="white"/>
</g>
<defs>
<clipPath id="clip0_44_237">
<rect width="100" height="100" fill="white"/>
</clipPath>
</defs>
</svg>
