<svg width="114" height="114" viewBox="0 0 114 114" fill="none" xmlns="http://www.w3.org/2000/svg">
<path d="M57.1116 11.875C53.4185 11.8869 50.8582 12.2122 47.7636 12.7466C38.6246 14.3379 36.9597 17.6795 36.9597 23.8379V33.25H58.3347V38H36.1475H25.8162C19.5558 38 14.0766 40.9497 12.3405 48.0201C10.3788 56.1355 10.2909 61.218 12.3405 69.692C13.8961 76.0118 17.3233 80.75 23.5861 80.75H32.2121V68.628C32.2121 61.5837 38.5914 54.625 45.9016 54.625H63.0871C69.0792 54.625 74.9621 50.2027 74.9621 44.2296V23.8379C74.9621 18.0452 70.7845 13.7132 64.9444 12.7419C65.0892 12.7276 60.7739 11.8607 57.1116 11.875ZM45.2746 21.375C47.2245 21.375 48.8371 22.9829 48.8371 24.9422C48.8371 26.9206 47.2245 28.5 45.2746 28.5C43.2867 28.5 41.7121 26.923 41.7121 24.9422C41.7121 22.99 43.2867 21.375 45.2746 21.375Z" fill="url(#paint0_linear_44_240)"/>
<path d="M54.8103 102.125C58.5034 102.113 61.0636 101.788 64.1583 101.253C73.2973 99.6621 74.9621 96.3205 74.9621 90.1621V80.75H53.5871V76H75.7768H86.108C92.3685 76 97.8477 73.0502 99.5838 65.9799C101.546 57.8645 101.633 52.782 99.5838 44.308C98.0258 37.9881 94.5987 33.25 88.3358 33.25H79.7098V45.372C79.7098 52.4162 73.3305 59.375 66.0203 59.375H48.8348C42.8426 59.375 36.9598 63.7972 36.9598 69.7704V90.1621C36.9598 95.9547 41.1374 100.287 46.9775 101.258C46.8326 101.272 51.148 102.139 54.8103 102.125ZM66.6496 92.625C64.6998 92.625 63.0871 91.0171 63.0871 89.0577C63.0871 87.0794 64.6998 85.5 66.6496 85.5C68.6375 85.5 70.2121 87.077 70.2121 89.0577C70.2121 91.01 68.6351 92.625 66.6496 92.625Z" fill="url(#paint1_linear_44_240)"/>
<defs>
<linearGradient id="paint0_linear_44_240" x1="24.8377" y1="30.8085" x2="62.4957" y2="62.4078" gradientUnits="userSpaceOnUse">
<stop stop-color="#26ABE7"/>
<stop offset="1" stop-color="#086DBF"/>
</linearGradient>
<linearGradient id="paint1_linear_44_240" x1="83.9183" y1="90.0386" x2="55.8529" y2="49.9557" gradientUnits="userSpaceOnUse">
<stop stop-color="#FEB705"/>
<stop offset="1" stop-color="#FFDA1C"/>
</linearGradient>
</defs>
</svg>
