<svg width="33" height="32" viewBox="0 0 33 32" fill="none" xmlns="http://www.w3.org/2000/svg">
<path d="M1.16675 16C1.16675 7.43959 8.10633 0.5 16.6667 0.5C25.2272 0.5 32.1667 7.43959 32.1667 16C32.1667 24.5604 25.2272 31.5 16.6667 31.5C8.10633 31.5 1.16675 24.5604 1.16675 16Z" stroke="black"/>
<path d="M20 9.33325H13.3333C11.4924 9.33325 10 10.8256 10 12.6666V19.3333C10 21.1742 11.4924 22.6666 13.3333 22.6666H20C21.8409 22.6666 23.3333 21.1742 23.3333 19.3333V12.6666C23.3333 10.8256 21.8409 9.33325 20 9.33325Z" stroke="black" stroke-linecap="round" stroke-linejoin="round"/>
<path d="M19.3333 15.58C19.4156 16.1348 19.3208 16.7014 19.0625 17.1993C18.8041 17.6972 18.3954 18.1009 17.8944 18.3531C17.3934 18.6052 16.8256 18.693 16.2718 18.6039C15.7181 18.5148 15.2065 18.2533 14.8099 17.8567C14.4132 17.4601 14.1518 16.9485 14.0627 16.3948C13.9736 15.841 14.0613 15.2732 14.3135 14.7722C14.5657 14.2712 14.9694 13.8625 15.4673 13.6041C15.9652 13.3458 16.5318 13.251 17.0866 13.3333C17.6526 13.4172 18.1765 13.6809 18.5811 14.0855C18.9857 14.4901 19.2494 15.014 19.3333 15.58Z" stroke="black" stroke-linecap="round" stroke-linejoin="round"/>
<path d="M20.3335 12.3333H20.3402" stroke="black" stroke-linecap="round" stroke-linejoin="round"/>
</svg>
