<svg width="108" height="108" viewBox="0 0 108 108" fill="none" xmlns="http://www.w3.org/2000/svg">
<g clip-path="url(#clip0_44_245)">
<path d="M91.8785 52.0425C91.8785 73.44 74.92 90.7858 54.0009 90.7858C33.081 90.7858 16.1224 73.44 16.1224 52.0425C16.1224 30.645 33.0818 13.2975 54.0009 13.2975C74.92 13.2975 91.8785 30.645 91.8785 52.0425Z" fill="#D33833"/>
<path d="M17.6664 61.6376C17.6664 61.6376 14.9242 21.2347 52.1522 20.0812L49.5551 15.7528L29.3532 22.534L23.5819 29.1718L18.5313 38.8403L15.6456 50.0951L16.5105 57.5986" fill="#EF3D3A"/>
<path d="M28.0572 25.6121C21.4118 32.4127 17.2994 41.8003 17.2994 52.1868C17.2994 62.5709 21.4118 71.961 28.0572 78.7599C34.7059 85.558 43.8691 89.754 54 89.754C64.1309 89.754 73.294 85.558 79.9428 78.7599C86.5882 71.961 90.7014 62.5709 90.7014 52.1868C90.7014 41.8003 86.5882 32.4119 79.9428 25.6121C73.294 18.8157 64.1309 14.6197 54 14.6189C43.8699 14.6197 34.7059 18.8148 28.0572 25.6129V25.6121ZM26.3756 80.4044C19.3134 73.181 14.9462 63.1986 14.9462 52.1868C14.9462 41.1734 19.3134 31.1918 26.3756 23.9684C33.4378 16.7434 43.2118 12.2656 54 12.2665C64.7899 12.2648 74.5655 16.7434 81.6252 23.9684C88.6891 31.1918 93.0563 41.1742 93.0555 52.1868C93.0555 63.1978 88.6891 73.181 81.6252 80.4044C74.5655 87.6285 64.7899 92.1072 54.0008 92.1072C43.2118 92.1072 33.4361 87.6285 26.3756 80.4044Z" fill="#231F20"/>
<path d="M69.9452 52.2568L64.1731 53.1225L56.3811 53.9882L51.3304 54.1324L46.424 53.989L42.6727 52.8339L39.3533 49.2269L36.7563 41.8677L36.1792 40.2806L32.7156 39.1264L30.6956 35.807L29.2528 31.0449L30.8399 26.8599L34.5912 25.5622L37.622 27.005L39.0648 30.1792L40.797 29.8907L41.3733 29.1693L40.797 25.8508L40.6519 21.6658L41.5176 15.8945L41.4838 12.5972L44.1155 8.39107L48.7325 5.07176L56.8139 1.60901L65.7602 2.90754L73.5522 8.53535L77.1601 14.3066L79.4686 18.4916L80.0457 28.8807L78.3135 37.8278L75.1393 45.7633L72.1094 49.9483" fill="#F0D6B7"/>
<path d="M74.2728 48.0726L70.8109 51.5362V64.9552L67.7903 77.3246L66.3382 77.3642L67.4916 91.2169L72.9743 90.4955L71.6766 77.2199L69.228 77.2866L75.8624 76.9305C75.8624 76.9305 79.1801 68.5614 79.1801 68.1285C79.1801 67.6957 82.0674 56.0081 82.0674 56.0081L75.5722 49.2269L74.2737 48.0709L74.2728 48.0726ZM39.4977 50.236L35.8906 51.6796L24.3464 59.616L25.0687 61.9253L28.388 71.7364L29.83 88.0436L30.8399 89.7733L45.2689 94.6814L46.1363 93.6689L44.4041 81.5484V78.0865L65.038 77.2199L66.6242 76.3543L54.0726 70.4379L56.3811 65.966L53.0626 67.1194L51.7632 65.5323L50.0319 58.0289L48.5882 57.596L45.414 56.5852L42.6718 54.1333L39.4977 50.236Z" fill="#335061"/>
<path d="M30.8399 26.8608L34.5913 25.5614L37.622 27.0051L39.0648 30.1793L40.797 29.8907L41.2299 28.1593L40.3642 24.8409L41.2299 16.9037L40.5076 12.5753L43.1055 9.54453L48.7333 5.07181L47.1454 2.90759L39.2091 6.80319L35.8906 9.40109L34.0141 13.441L31.1285 17.3366L30.2628 21.9544L30.8399 26.8608Z" fill="#6D6B6D"/>
<path d="M50.1568 3.39268C49.1679 3.38255 48.0111 3.4838 48.0111 3.4838L38.6328 7.09252L35.0241 10.7004L33.437 13.586L36.7563 13.2975C36.7563 13.2975 38.9205 7.95821 47.5783 5.36115C52.9892 3.73777 51.8054 3.4104 50.1568 3.39268ZM40.5085 12.5752L32.5722 14.4509L30.2628 21.9543L30.8399 26.8599L32.4262 25.8516C32.4262 25.8516 29.3963 15.7486 40.9396 14.3057L40.5085 12.5752Z" fill="#DCD9D8"/>
<path d="M59.0507 0.400734C57.9394 0.420464 56.8401 0.634045 55.8023 1.03186C47.1454 4.35033 40.7962 10.4101 40.9396 14.3057C41.186 20.941 41.0847 20.946 41.0847 20.946C41.0847 20.946 43.5383 8.24677 55.9491 5.79314C66.1652 3.77405 71.5314 6.22514 73.5522 8.53364C73.5522 8.53364 66.5913 0.248015 59.0515 0.39989L59.0507 0.400734ZM74.5149 9.9773C74.0551 9.97477 70.3696 10.0684 70.2337 13.586C70.2337 13.586 70.2337 14.1623 70.5223 14.7394C70.5223 14.7394 73.8416 10.9873 75.8616 13.0072L74.563 9.97814C74.563 9.97814 74.5462 9.9773 74.5149 9.9773ZM53.2651 11.6732C52.5563 11.6901 51.6822 11.9863 50.6081 12.7195C47.4339 14.8837 47.7225 17.9145 48.2996 18.4916C48.8767 19.0687 48.7207 20.2297 49.1602 19.4324C49.599 18.635 49.4547 16.0388 51.0418 15.3174C52.6289 14.596 55.2319 13.7885 56.2393 15.1301C56.2393 15.1301 55.7989 11.615 53.2651 11.6741V11.6732ZM75.5713 20.5124C75.5713 20.5124 73.1936 21.0135 72.9743 23.1094C72.7549 25.2045 75.5722 23.5414 76.005 23.3971L75.5713 20.5115V20.5124ZM58.1116 20.6566C58.1116 20.6566 54.9374 21.0895 54.9374 23.1094C54.9374 25.1294 58.5453 24.9851 59.5553 24.1194L58.1116 20.6566ZM32.427 25.8525L29.1094 29.3135L29.6865 33.6428L31.4162 38.1147L33.2935 38.6935C30.5513 35.375 31.8499 33.0648 32.427 29.8906C33.0033 26.7156 38.4877 30.0358 38.4877 30.0358L38.3425 27.8699L36.1792 26.1402L32.427 25.8525ZM65.0033 32.4734C64.0533 32.4312 63.6905 35.5404 63.6128 36.3428C63.8744 35.5666 66.2884 34.0056 66.2884 34.0056C66.2884 34.0056 66.2884 32.8277 65.1105 32.4919C65.0756 32.4816 65.0397 32.4753 65.0033 32.4734ZM63.6128 36.3428C63.5895 36.4021 63.5836 36.4668 63.596 36.5293C63.596 36.5293 63.601 36.4609 63.6128 36.3428ZM38.9348 37.4405L37.0448 39.2715L37.4777 45.6207L42.0955 52.8356C42.0955 52.8356 47.2787 54.005 46.7125 53.5578C40.5084 48.6514 40.0756 39.56 39.9313 38.5492C39.7879 37.5401 38.9348 37.4405 38.9348 37.4405ZM55.172 39.5912C54.6024 39.5997 54.2253 39.7836 54.119 39.9254C53.7587 40.4063 54.5046 43.0236 54.5046 43.0236L55.226 43.1687C55.0825 40.2823 56.8131 39.9929 56.8131 39.9929C56.1735 39.6857 55.6149 39.5845 55.172 39.5912Z" fill="#F7E4CD"/>
<path d="M38.4877 50.0934L24.3464 59.616L25.9335 64.0904L29.6865 80.2499L29.83 88.765L31.8499 89.4856C34.7355 82.5584 29.1094 60.1931 29.1094 60.1931L42.6718 54.1333L38.4877 50.0934ZM44.0682 66.5027L43.6818 67.408C43.6818 67.408 43.3941 70.0051 43.3941 70.7265C43.3941 71.4487 43.6818 77.5102 43.6818 77.5102H45.9912V68.8508L44.0674 66.5018L44.0682 66.5027ZM44.1155 78.8079L37.6228 79.0965L39.4977 80.3958L44.1155 81.1173V78.8079ZM74.2728 48.0726L71.5323 51.1025L81.6328 58.6069L81.9214 55.1441L74.2728 48.0735V48.0726ZM71.3872 76.3551L66.3382 77.3643L67.0587 81.4058C68.9344 82.2715 72.1094 79.9622 72.1094 79.9622L71.3872 76.3551Z" fill="#49728B"/>
<path d="M42.6718 52.8356V54.1332L44.5061 56.154L50.2773 58.7511L50.4224 54.4235L46.4239 53.9881L42.6718 52.8356ZM84.909 73.3252L80.2912 74.7688L75.8615 76.9314L73.5083 76.5011L71.6757 77.2208L73.2214 89.3438L78.8475 87.755L89.526 87.1779L91.1131 82.2723L88.2275 73.7589L84.909 73.3252ZM66.3381 77.3642L57.9259 77.3659L44.404 78.0865L44.6495 84.7259L46.1362 93.6697L49.1231 105.794L55.76 107.236L66.7271 106.37L66.8705 104.205L65.5711 92.5171L66.3381 77.3642ZM67.4493 76.2117L64.2743 68.1311L60.955 63.3689C60.955 63.3689 61.6764 61.349 62.6872 61.349H66.0057L69.1798 62.5033L68.8921 67.8425L67.4493 76.2117Z" fill="white"/>
<path d="M43.972 54.8556L43.5392 55.4336L45.9928 57.1641L50.0318 58.0289L49.8884 56.2992C48.4456 56.7321 43.972 54.8556 43.972 54.8556ZM64.028 61.0597L60.7103 61.4917L66.3382 74.7672L67.4916 74.9124L68.0687 73.4696C68.0687 73.4696 64.0271 65.6767 64.0271 64.5224C64.0271 64.5224 64.7494 62.7911 65.7593 63.2231C66.7702 63.6567 68.9352 64.811 68.9352 64.811V62.0697L64.028 61.0597ZM77.7372 76.2109L75.8616 76.9315L77.4487 84.8678C76.8715 84.7235 73.1202 86.4566 73.1202 86.4566L73.5505 88.7651L75.1402 88.1871L80.1892 87.4665L81.6328 89.3422L85.9613 89.4856L88.5592 88.9085L90.8677 85.4466L90.7225 82.8478L89.1363 78.23C89.5691 81.6928 87.8369 85.0129 87.8369 85.0129C87.1155 85.0129 79.0358 84.5792 79.0358 84.5792C79.0358 83.7135 77.7372 76.2109 77.7372 76.2109ZM66.625 76.3543L64.4608 77.2209C64.4608 77.2209 63.7403 92.2287 65.9045 102.906C65.9045 102.906 61.576 105.648 55.226 106.368L67.3464 105.935L68.7901 105.07L67.0587 81.405L66.625 76.3543ZM70.3966 91.7924C69.7756 91.7958 68.8525 92.2363 68.2003 92.1932C68.105 94.4722 68.4248 98.1273 68.5319 100.519C70.0473 100.52 70.6961 100.188 71.8276 99.8064C71.955 96.9925 70.9358 94.3878 70.643 91.8186C70.5626 91.799 70.4792 91.7902 70.3966 91.7924Z" fill="#DCD9D8"/>
<path d="M71.5306 53.8465C69.6811 53.9325 67.1869 56.2908 66.0251 56.7042C66.1753 57.1362 66.4217 57.478 66.4402 58.0289C67.2544 57.8281 68.2458 57.9657 68.9521 58.3124C68.1353 58.4036 67.2325 58.3985 66.6925 58.7875C66.4942 59.3587 66.7389 60.1375 66.6064 60.9306C68.5437 61.4773 70.7568 61.7693 73.2046 61.841C73.6821 61.2225 73.8441 60.0413 73.7867 58.8727C73.7192 57.4636 73.3488 54.5662 72.4789 54.0591C72.1921 53.8929 71.8731 53.8313 71.5306 53.8465ZM52.5167 54.4776C50.5558 54.5198 50.76 57.9437 50.8553 60.0396C50.9355 61.8098 51.8577 63.6829 52.2559 64.8599C52.4449 65.4084 52.4871 65.9922 52.9562 66.1002C53.7865 66.2943 56.5253 65.2 57.3058 64.7747C58.9553 63.8753 60.2361 62.446 61.6367 61.4866L61.6891 60.0877C60.847 59.6675 59.875 59.3688 58.6372 59.3148C59.4767 58.8929 60.7103 58.8988 61.4747 58.3968L61.4967 57.8382C60.1011 57.7311 59.5687 57.1092 58.649 56.6055C57.1438 55.7837 54.8825 54.8868 52.9385 54.5156C52.7996 54.4882 52.6582 54.4755 52.5167 54.4776ZM63.8482 57.3944C63.4753 57.3978 63.0306 57.5387 62.5235 57.8779C62.4273 58.9402 62.6754 59.287 62.8889 60.5062C65.8361 61.4284 65.8631 57.3809 63.8482 57.3944Z" fill="#D33833"/>
<path d="M71.345 52.8364L65.8623 56.0106L65.572 57.5969V60.7711L67.592 61.4933C67.592 61.4933 66.582 60.0505 67.3042 59.6176C68.0256 59.1848 68.7479 59.6176 69.1807 58.8962C69.6136 58.174 69.1807 57.7411 69.3242 56.8755C69.4685 56.0098 70.1899 55.8663 70.9113 55.7221C71.6327 55.5786 73.6535 55.2892 73.942 56.0106L73.0763 53.4136L71.345 52.8364ZM53.174 53.7055C52.4593 53.6903 51.8079 53.8084 51.3304 54.1333C47.9376 56.4409 50.6722 61.7743 52.3344 64.9113C52.1936 63.1079 52.0423 61.3054 51.8805 59.5037C51.575 56.1456 52.688 56.732 55.5997 56.732C56.0452 56.732 58.3377 57.2619 58.5022 57.5977C59.2895 59.2051 57.186 58.8473 59.4084 60.0598C61.2849 61.0824 64.5992 59.4379 63.8415 57.164C63.4171 56.6578 61.6309 57.0062 60.9905 56.6746L57.6087 54.9213C56.6232 54.4092 54.7467 53.7384 53.174 53.7055ZM52.3336 64.9105C52.369 65.3594 52.4061 65.8074 52.4407 66.2554L52.9571 66.101C52.785 65.7593 52.5698 65.356 52.3344 64.9113L52.3336 64.9105Z" fill="#EF3D3A"/>
<path d="M57.008 0.00501591C53.9789 0.0623909 51.0165 0.56611 48.5477 1.47483C46.7126 2.14983 44.9348 2.75395 43.3232 3.70064C39.0108 6.23189 34.4326 7.92614 33.1543 13.0215C30.0038 14.4323 29.0537 18.4646 29.2123 23.144C29.2427 24.0561 29.738 25.196 29.5667 26.0541C29.479 26.4895 28.8883 27.0472 28.7702 27.3307C27.2599 30.931 28.4707 35.6636 30.2156 38.2227C31.2702 39.7684 33.0168 41.1395 35.3202 41.5032C35.4122 42.8827 35.7438 44.0699 36.3808 45.468C36.7841 46.3522 38.2902 47.9418 37.7359 49.0699C37.4575 49.6386 35.0047 50.873 34.1913 51.3615C31.4449 53.0085 29.4545 54.0185 26.919 55.8435C25.2788 57.0248 22.7129 57.1767 23.1179 59.9003C23.3905 61.738 24.4367 64.0161 25.0349 65.8589C25.6829 67.8476 26.6111 69.6692 27.1443 71.733C28.3298 76.3323 28.577 80.6658 28.8656 85.158C28.9786 86.9172 28.7913 88.7785 29.2478 89.7496C29.7186 90.7537 31.4635 91.0743 32.724 91.6599C36.3648 93.3432 40.2275 95.9141 45.0023 95.4036C46.1405 99.2309 47.2163 103.307 48.5823 106.659C53.4786 108.419 61.2082 108.144 66.2985 107.533C67.846 107.345 69.4786 106.582 69.8423 105.24C69.7334 104.413 69.6128 103.595 69.6651 102.617C71.2564 102.288 73.4223 102.016 73.7725 100.254C74.2635 97.7838 72.2124 94.2443 72.8966 91.5333C73.818 91.2346 74.8018 91.0009 74.655 89.5463C76.2075 88.738 78.0494 88.5574 80.0154 88.6334C80.2685 89.1227 80.6288 89.5935 80.9528 89.8627C83.7068 90.4162 86.3739 90.4618 88.6604 89.7159C91.2482 88.8705 92.4826 83.5776 91.8911 81.059C91.471 79.2745 90.5209 76.3509 89.7109 74.6229C87.5163 69.9316 80.9756 72.8763 77.4748 74.6161C79.1733 70.1485 80.6338 65.5163 82.1323 60.5044C82.5795 59.0025 83.4638 56.8738 83.2655 55.3179C83.0799 53.8548 80.7984 52.3175 79.5977 51.1582C78.9303 50.5153 75.8186 48.1528 75.638 47.2685C75.4633 46.413 76.907 44.4749 77.3711 43.5054C78.0376 42.1183 78.5152 40.4206 78.8434 39.2655C81.2903 30.6627 81.5392 18.8434 78.041 11.7711C76.7163 9.0922 73.0122 5.39236 70.6961 3.63989C67.2806 1.05802 62.0545 -0.0894841 57.008 0.00501591ZM57.4113 2.40127C61.501 2.36161 66.0488 3.80442 69.1285 5.5417C71.7019 6.99295 73.6003 9.80095 75.411 12.1373C72.8722 11.3838 70.7113 12.679 71.1054 14.7732C73.2308 12.825 76.8614 14.7521 77.9355 16.9062C78.9624 18.9649 78.9556 22.0168 79.1134 25.0779C79.4956 32.5012 77.755 40.1599 74.0247 45.5253C73.0274 46.958 72.1904 48.524 70.7881 49.5104C67.4081 51.8838 62.2705 54.0354 57.8711 52.5597C52.0577 50.6089 49.4168 46.7353 46.219 42.2997C46.3059 44.7364 48.0195 46.7361 49.7121 48.6C51.1844 50.2242 52.9614 52.0593 54.8733 52.817C53.2786 52.4424 50.8301 52.3251 50.1652 53.757C46.4442 53.5097 42.9866 53.1292 41.2265 50.6072C39.8394 48.6194 38.4303 45.2385 37.7983 42.627C37.6692 42.0904 37.4482 40.948 37.5022 40.6552C37.7097 39.522 39.728 39.0242 38.934 37.4405C37.4693 37.427 37.1394 38.7736 35.7953 38.907C32.3148 39.2512 29.8595 34.2942 30.0173 31.3031C30.1514 28.76 32.3013 26.3266 35.2418 26.6481C37.3199 26.8759 38.0261 29.1439 38.4295 31.1622C39.6276 31.2263 41.3581 31.1107 41.9251 30.1758C41.8433 27.8952 40.7844 26.0659 40.8569 23.97C40.9936 20.0314 43.1393 16.4775 41.4838 12.598C43.2557 8.57836 48.4541 5.40586 52.299 3.48802C53.7882 2.74552 55.5525 2.42152 57.4121 2.40295L57.4113 2.40127ZM46.8324 4.3807C46.9994 4.4077 47.153 4.53764 47.3015 4.69627C47.2762 5.38055 46.6012 5.3662 46.1456 5.58558C45.4368 6.45717 44.4007 6.8647 43.5384 7.81983C42.6533 8.79858 41.6636 11.4277 40.4907 11.718C39.9026 11.8648 39.231 11.6167 38.7189 11.6505C37.3646 11.7357 36.4112 12.4292 35.0376 12.6284C36.8111 8.75133 42.3436 5.61427 46.6594 4.39167C46.7155 4.37525 46.7746 4.37151 46.8324 4.3807ZM54.2067 12.7954C51.9818 12.798 49.448 15.1765 48.7873 16.9914C48.519 17.7288 48.0955 19.1767 49.1594 19.434C50.3516 16.7771 52.3058 14.2155 56.2385 15.1309C56.9936 13.8898 55.6436 12.9777 54.6463 12.8275C54.5005 12.8057 54.3542 12.795 54.2067 12.7954ZM40.1532 13.2004C41.6737 17.0699 39.0623 21.6683 40.0351 25.8997C40.333 27.1957 41.3632 29.2072 39.7179 29.2511C39.7609 25.5639 35.1869 23.2242 31.7402 25.3918C31.5099 22.5956 31.1108 18.6645 33.0176 16.567C34.7769 14.6297 37.2018 13.424 40.1532 13.2004ZM75.4017 19.6104C75.276 21.7341 76.0649 23.0124 76.6125 24.5143C75.6658 25.11 73.8239 24.7387 72.7566 25.2053C72.6806 28.3466 77.6166 26.7983 78.3675 25.0492C77.2453 23.4191 76.4767 21.4633 75.5874 19.618L75.4017 19.6095V19.6104ZM58.2525 19.6585C57.6686 21.3156 59.2549 24.1287 60.1442 25.5512C58.9857 26.676 56.9025 25.7419 55.3526 25.6694C53.8735 28.0057 58.2407 28.4453 60.1147 27.8918C60.6277 27.7408 61.5153 26.9721 61.6376 26.6262C62.1582 25.164 61.1086 24.5227 60.5686 23.9962C59.3705 22.8285 59.0954 21.2034 58.2525 19.6585ZM67.1532 21.1857C67.0402 21.1705 66.9043 21.211 66.7415 21.3291C66.636 25.2239 69.5301 28.4478 71.6884 31.0491C72.7431 32.319 74.0138 33.0446 72.8435 35.0173C70.9569 35.7345 67.9033 37.789 65.2801 37.3401C63.8879 37.1022 64.2018 35.5218 63.7023 34.6629C62.7421 35.926 63.1184 37.8371 64.1073 38.696C68.7302 39.1533 71.8766 37.1823 74.6981 35.3691C74.5858 34.6587 75.5519 33.3779 75.2836 32.3097C75.1908 31.9418 74.3538 31.4085 73.8459 30.8525C71.7761 28.5955 68.9403 25.223 67.8131 22.5855C67.7118 22.3492 67.6435 21.2506 67.1532 21.1857ZM34.2639 28.4715C33.1948 28.4546 32.2262 29.1591 31.9976 30.8196C32.4717 30.5091 32.854 29.6257 33.7087 30.0459C32.9577 31.5115 33.1383 34.3659 34.1601 35.294C34.1542 33.5542 33.8833 30.58 35.3666 30.6703C36.4053 30.7327 36.6154 32.9568 37.4996 33.4614C38.1097 30.5268 36.0467 28.4985 34.2639 28.4715ZM76.4944 37.2127C74.2391 38.2421 72.4191 39.7414 69.4727 40.0241C69.3301 40.5109 69.3909 41.7394 69.4693 42.5469C73.3227 42.4667 75.1815 39.7127 76.4944 37.2127ZM58.0298 38.8335C59.1562 41.8483 64.2339 42.9114 68.5286 42.6971C68.5218 41.8044 68.526 40.8999 68.3471 40.1675C65.0059 40.2654 60.4876 40.1253 58.0298 38.8335ZM57.5632 41.245C55.3922 41.2475 57.2231 42.4549 57.591 42.9274C58.3521 43.9062 59.2448 45.576 60.6353 46.3151C62.8273 47.4795 67.1811 46.9909 68.7606 46.3488C69.3445 46.1126 69.8153 45.457 70.0321 44.9035C65.1046 45.0216 59.2633 45.5127 57.5632 41.245ZM73.9623 49.539C75.6498 50.8983 76.6691 52.1775 78.2874 53.6312C79.1649 54.4185 80.8929 55.3618 81.0675 56.635C81.1646 57.3454 80.7292 59.0861 80.5689 59.8851C79.8601 63.39 78.2654 68.0206 76.7467 71.6934C76.1949 73.0282 75.6667 74.6971 74.9385 74.9857C72.9439 75.7755 70.5232 74.9089 68.8281 75.9645C71.1062 72.0115 73.5868 68.277 75.8194 64.2768C75.4794 63.4837 74.6457 63.1454 74.4036 62.262C75.9713 59.3012 75.2507 50.1094 71.2496 52.05C71.8091 51.2282 73.278 50.5499 73.9623 49.539ZM38.7577 51.6315C39.1213 51.4881 41.7758 54.9416 42.1681 55.2217C44.3197 56.7489 46.991 57.9555 49.4893 59.1477C49.6421 60.2943 49.9956 61.7802 50.6183 63.7681C51.3042 65.9635 51.8704 69.0617 54.7712 67.4789C54.4953 68.7327 52.8837 69.5106 53.3284 70.9728C53.6068 71.89 56.6528 73.0231 57.618 73.5682C59.3992 74.5723 61.0242 75.1275 62.3928 75.7147C56.1744 75.8851 50.3348 76.3914 44.588 77.1735C43.8995 76.107 44.1771 74.4634 44.1045 72.765C44.0252 70.9205 44.7922 66.7625 44.0674 66.5043C43.2481 66.2132 43.0946 67.8737 43.065 68.2399C42.9115 70.1873 43.9923 74.3107 42.9266 76.642C41.7606 76.3121 41.186 75.4354 40.0933 75.0372C39.6647 76.3872 40.981 76.4521 40.846 77.3094C40.6671 78.4426 38.5197 77.495 38.5316 79.18C39.9296 79.4044 42.0745 78.7455 43.5687 79.3757C43.9594 83.9598 44.5871 88.3035 45.2748 93.1727C39.3281 92.8639 35.4789 89.9091 31.0956 87.8596C30.8231 78.165 29.2781 68.1075 25.4526 59.8978C29.4655 56.8012 33.9559 53.5258 38.7585 51.6324L38.7577 51.6315ZM71.7331 53.8472C71.9997 53.8599 72.2503 53.9265 72.479 54.0599C73.3497 54.5678 73.7201 57.4652 73.7877 58.8743C73.8442 60.0429 73.6813 61.2225 73.2055 61.8418C70.7569 61.7701 68.5446 61.479 66.6073 60.9322C66.7398 60.1391 66.4934 59.3586 66.6917 58.7865C67.2309 58.3984 68.1354 58.4052 68.9513 58.314C68.2459 57.9664 67.2553 57.8289 66.4411 58.0297C66.4217 57.4779 66.1745 57.137 66.0251 56.705C67.2292 56.2756 69.8676 53.7553 71.7331 53.8472ZM67.3456 53.9544C66.3179 54.6243 65.443 55.4622 64.4566 56.1777C62.2688 56.2865 61.0749 56.0266 59.4675 54.7703C59.4928 54.6691 59.6548 54.7146 59.6616 54.5906C62.003 55.6343 64.9814 54.1653 67.3456 53.9544ZM44.2716 53.9957C45.4925 54.8437 47.855 54.6345 49.653 54.95C49.7458 55.5263 49.2801 56.2831 49.2885 57.0855C47.7757 56.9927 43.022 55.263 44.2716 53.9957ZM52.5167 54.4792C52.6475 54.4758 52.7876 54.4885 52.9386 54.5172C54.8826 54.8884 57.1438 55.7845 58.6491 56.6071C59.5688 57.11 60.1012 57.731 61.4967 57.839C61.4908 58.0246 61.4824 58.2103 61.4756 58.3976C60.7112 58.8996 59.4768 58.8937 58.6381 59.3156C59.8751 59.3696 60.8487 59.6674 61.6908 60.0876L61.636 61.4874C60.2345 62.4467 58.9545 63.8752 57.305 64.7746C56.5245 65.1999 53.7866 66.2951 52.9571 66.101C52.4872 65.9922 52.445 65.4091 52.2568 64.8607C51.8577 63.6837 50.9372 61.8114 50.8562 60.0412C50.7609 57.9445 50.5558 54.5189 52.5167 54.4792ZM63.7335 57.4011C63.8491 57.3918 63.9588 57.3952 64.0626 57.4104C65.8564 57.6745 65.7265 61.3946 62.8881 60.507C62.6746 59.2886 62.4274 58.941 62.5227 57.8787C62.98 57.5741 63.3851 57.429 63.7335 57.4011ZM65.367 61.6317C66.3947 61.7414 67.2081 63.1589 68.6745 63.0661C68.4391 66.8899 68.5623 70.7273 67.495 74.2305C65.5062 70.5839 64.336 66.1812 61.7617 63.0787C62.0334 62.7901 62.2764 62.4704 62.543 62.1751C63.7091 62.6627 64.4701 61.5355 65.367 61.6317ZM71.28 62.8484C72.6958 62.8374 73.8551 63.763 74.4922 64.7865C72.4976 68.2036 70.589 71.712 68.2231 74.7258C69.2145 71.8081 69.6398 66.9254 69.79 63.2027C70.2551 62.978 70.7635 62.8571 71.28 62.8484ZM60.5053 64.1503C62.8678 67.149 64.3056 71.0057 65.8885 74.7284C62.149 73.6011 58.3285 71.7719 55.0513 69.9173C55.6943 67.1295 58.2154 65.6851 60.5053 64.1503ZM85.4052 74.0458C86.4321 74.0711 87.4522 74.9047 87.8985 75.5806C88.7052 76.7989 89.4586 80.3857 89.8813 82.29C90.5116 85.1242 89.095 87.8833 86.8413 88.43C85.2011 88.8283 82.685 88.9337 81.6109 88.4148C82.9255 87.6968 84.9007 87.6926 86.422 87.1998C84.2426 86.2616 81.0177 87.1458 78.3971 86.9821C78.0807 83.7464 77.8419 80.2381 77.0749 77.684C78.6046 76.0581 82.3002 75.6674 84.3987 74.3251C84.698 74.1318 85.0491 74.0344 85.4052 74.0458ZM85.2272 77.0647C82.5416 77.144 80.4431 77.8553 79.245 79.5436C81.4244 79.6829 82.9938 77.5119 85.2272 77.0647ZM74.6466 77.7271C74.8364 77.7355 75.0237 77.7566 75.2035 77.7971C76.6311 80.2524 76.9382 84.3353 76.891 87.2985C76.0008 87.4707 75.4228 87.9803 74.3428 87.9465C74.0669 84.5707 73.2831 81.021 72.9608 77.8047C73.4755 77.7945 74.0754 77.7034 74.6466 77.7271ZM58.1065 77.7633C60.9247 77.7178 63.6584 77.8831 66.0251 78.3759C66.6031 82.1331 66.388 85.8389 66.8098 89.5218C67.3684 94.4223 66.9499 100.013 67.9067 104.605C62.6982 106.219 55.5964 106.063 49.7036 104.274C47.0484 96.1377 45.6005 88.4148 44.6015 79.2272C48.4718 78.5033 53.4077 77.8393 58.1065 77.7633ZM70.6143 78.0873C71.545 81.4514 71.4893 85.7317 71.9466 89.5345C70.5392 89.8433 69.5098 89.9943 67.9953 90.2221C67.6941 86.2717 67.4637 82.3795 67.5177 78.4341C68.591 78.0747 69.5377 78.0966 70.6143 78.0873ZM82.8369 80.0246C81.7737 80.0381 80.8169 80.2693 80.4069 80.8953C82.2547 81.0472 84.3911 80.7519 86.2119 80.5595C85.3816 80.2726 84.0417 80.0086 82.8369 80.0246ZM82.5323 82.7583C81.5805 82.7701 80.741 82.9507 80.3098 83.4139C82.2538 83.5768 84.7969 83.6173 86.843 83.5734C86.0136 83.187 84.1185 82.7381 82.5323 82.7583ZM70.114 91.8168C70.3131 91.7856 70.4936 91.7789 70.643 91.8185C70.9366 94.3877 71.955 96.9916 71.8276 99.8055C70.697 100.187 70.0473 100.521 68.5311 100.518C68.4248 98.1272 68.1041 94.4721 68.2003 92.1923C68.7589 92.2294 69.5174 91.9105 70.114 91.8168Z" fill="#231F20"/>
<path d="M71.28 62.8475C70.7632 62.8562 70.2545 62.9771 69.7891 63.2019C69.6389 66.9245 69.2153 71.8073 68.2231 74.7241C70.5898 71.7111 72.4975 68.2019 74.4921 64.7856C73.8542 63.7621 72.6958 62.8365 71.28 62.8475ZM60.5053 64.1503C58.2153 65.6859 55.6959 67.1304 55.0521 69.9181C58.3292 71.7727 62.1498 73.6011 65.8893 74.7284C64.3064 71.0074 62.8686 67.1498 60.5053 64.1503Z" fill="#81B0C4"/>
<path d="M67.3456 53.9536C66.3179 54.6244 65.443 55.4614 64.4566 56.1777C62.2688 56.2857 61.0749 56.0259 59.4675 54.7695C59.4937 54.6683 59.6557 54.7138 59.6616 54.5898C62.003 55.6335 64.9806 54.1646 67.3456 53.9536Z" fill="#F0D6B7"/>
<path d="M66.7702 64.7392C66.7702 64.9497 66.6866 65.1515 66.5378 65.3004C66.389 65.4492 66.1871 65.5328 65.9767 65.5328C65.7662 65.5328 65.5643 65.4492 65.4155 65.3004C65.2667 65.1515 65.1831 64.9497 65.1831 64.7392C65.1831 64.5288 65.2667 64.3269 65.4155 64.1781C65.5643 64.0293 65.7662 63.9457 65.9767 63.9457C66.1871 63.9457 66.389 64.0293 66.5378 64.1781C66.6866 64.3269 66.7702 64.5288 66.7702 64.7392ZM67.5642 68.4188C67.5642 68.6294 67.4805 68.8313 67.3316 68.9802C67.1827 69.1291 66.9808 69.2128 66.7702 69.2128C66.5596 69.2128 66.3577 69.1291 66.2088 68.9802C66.0599 68.8313 65.9762 68.6294 65.9762 68.4188C65.9762 68.2082 66.0599 68.0063 66.2088 67.8574C66.3577 67.7085 66.5596 67.6249 66.7702 67.6249C66.9808 67.6249 67.1827 67.7085 67.3316 67.8574C67.4805 68.0063 67.5642 68.2082 67.5642 68.4188Z" fill="#1D1919"/>
</g>
<defs>
<clipPath id="clip0_44_245">
<rect width="108" height="108" fill="white"/>
</clipPath>
</defs>
</svg>
