<svg width="33" height="32" viewBox="0 0 33 32" fill="none" xmlns="http://www.w3.org/2000/svg">
<path d="M1.16675 16C1.16675 7.43959 8.10633 0.5 16.6667 0.5C25.2272 0.5 32.1667 7.43959 32.1667 16C32.1667 24.5604 25.2272 31.5 16.6667 31.5C8.10633 31.5 1.16675 24.5604 1.16675 16Z" stroke="black"/>
<path d="M19.3335 13.3333C20.3944 13.3333 21.4118 13.7547 22.1619 14.5048C22.9121 15.255 23.3335 16.2724 23.3335 17.3333V21.9999H20.6668V17.3333C20.6668 16.9796 20.5264 16.6405 20.2763 16.3904C20.0263 16.1404 19.6871 15.9999 19.3335 15.9999C18.9799 15.9999 18.6407 16.1404 18.3907 16.3904C18.1406 16.6405 18.0002 16.9796 18.0002 17.3333V21.9999H15.3335V17.3333C15.3335 16.2724 15.7549 15.255 16.5051 14.5048C17.2552 13.7547 18.2726 13.3333 19.3335 13.3333V13.3333Z" stroke="black" stroke-linecap="round" stroke-linejoin="round"/>
<path d="M12.6667 14H10V22H12.6667V14Z" stroke="black" stroke-linecap="round" stroke-linejoin="round"/>
<path d="M11.3333 11.9999C12.0697 11.9999 12.6667 11.403 12.6667 10.6666C12.6667 9.93021 12.0697 9.33325 11.3333 9.33325C10.597 9.33325 10 9.93021 10 10.6666C10 11.403 10.597 11.9999 11.3333 11.9999Z" stroke="black" stroke-linecap="round" stroke-linejoin="round"/>
</svg>
