<svg width="95" height="93" viewBox="0 0 95 93" fill="none" xmlns="http://www.w3.org/2000/svg">
<g id="Group">
<path id="Vector" d="M46.4463 28.569H50.3735L51.6667 32.4245L54.5642 41.189L61.2453 61.1326H56.9349L54.4445 53.5934H42.1359L39.6933 61.1326H35.5745L46.4463 28.569Z" fill="url(#paint0_linear_111_272)"/>
<path id="Vector 2" d="M47 47H50L48.4 43L47 47Z" stroke="#050B36" stroke-width="5"/>
<path id="Vector_2" d="M90.468 79.5849C89.3527 69.2805 86.3464 59.2432 81.6199 50.0439C82.5002 48.9486 83.0286 47.559 83.0286 46.0476C83.0286 44.5371 82.5008 43.1483 81.6214 42.0532C85.0702 35.3576 87.5993 28.2533 89.1526 20.8594C89.4136 19.6173 88.6183 18.3988 87.376 18.1379C86.1327 17.8763 84.9154 18.6726 84.6546 19.9143C83.2026 26.8253 80.8494 33.4692 77.645 39.7366C77.3165 39.6844 76.9802 39.6565 76.6375 39.6565C76.2077 39.6565 75.7879 39.6998 75.3818 39.781C69.1169 30.9619 61.1867 23.3775 52.09 17.5177C61.595 12.6306 72.0349 9.70111 82.7352 8.90886C83.7145 11.1846 85.9782 12.7824 88.6088 12.7824C92.1329 12.7824 95 9.91534 95 6.39119C95 2.86705 92.1329 0 88.6088 0C85.8114 0 83.4298 1.80721 82.5657 4.31486C70.249 5.202 58.2537 8.76608 47.4968 14.7655C39.4332 10.2655 30.7509 7.14048 21.6654 5.47801C20.4183 5.24874 19.2196 6.07634 18.9911 7.32492C18.7627 8.57341 19.5897 9.7707 20.8382 9.9992C28.5514 11.4106 35.96 13.9351 42.9116 17.5166C33.8077 23.3807 25.8721 30.9722 19.6045 39.8C19.1707 39.7067 18.7212 39.6564 18.26 39.6564C17.9508 39.6564 17.6471 39.6797 17.3495 39.7223C12.9717 31.1332 10.1754 21.7765 9.11662 12.1706C11.2812 11.1458 12.7824 8.9409 12.7824 6.39119C12.7824 2.86705 9.91533 0 6.39119 0C2.86705 0 0 2.86705 0 6.39119C0 9.26877 1.91191 11.7075 4.53182 12.5057C5.64401 22.7834 8.63648 32.7945 13.34 41.973C12.4217 43.0799 11.8688 44.5003 11.8688 46.0476C11.8688 47.5941 12.4211 49.0139 13.3386 50.1206C9.97266 56.6722 7.48537 63.6154 5.93189 70.8361C5.66494 72.0769 6.45446 73.2993 7.69523 73.5662C8.93654 73.8331 10.1584 73.0438 10.4253 71.8029C11.8816 65.0337 14.2057 58.5214 17.3478 52.3727C17.6459 52.4155 17.9502 52.4389 18.26 52.4389C18.7215 52.4389 19.1712 52.3885 19.6053 52.2952C25.8726 61.1204 33.8074 68.7096 42.91 74.573C33.4049 79.4601 22.9651 82.3896 12.2647 83.1818C11.2855 80.9061 9.02174 79.3083 6.39119 79.3083C2.86705 79.3083 0 82.1753 0 85.6995C0 89.2236 2.86705 92.0907 6.39119 92.0907C9.18855 92.0907 11.5702 90.2835 12.4342 87.7759C24.7509 86.8887 36.7464 83.3246 47.5032 77.3252C55.6392 81.8657 64.4029 85.0055 73.5758 86.6565C74.8263 86.8811 76.02 86.051 76.2446 84.8018C76.4695 83.5527 75.6391 82.3579 74.39 82.133C66.5941 80.7299 59.1092 78.1914 52.0883 74.5741C61.1849 68.715 69.115 61.1315 75.3807 52.3141C75.7873 52.3955 76.2073 52.4388 76.6374 52.4388C76.9796 52.4388 77.3154 52.411 77.6432 52.359C82.025 60.9511 84.8237 70.3114 85.8832 79.92C83.7187 80.9449 82.2175 83.1497 82.2175 85.6994C82.2175 89.2236 85.0845 92.0907 88.6087 92.0907C92.1328 92.0907 94.9999 89.2236 94.9999 85.6994C95 82.8219 93.088 80.3831 90.468 79.5849ZM47.5 72.0161C38.0546 66.339 29.8432 58.7311 23.4509 49.7693C24.2051 48.7203 24.6512 47.4354 24.6512 46.0476C24.6512 44.6595 24.205 43.3744 23.4505 42.3253C29.8424 33.3614 38.0538 25.7522 47.5 20.0746C56.9208 25.737 65.1139 33.3204 71.4984 42.2531C70.7122 43.3151 70.2463 44.6278 70.2463 46.0477C70.2463 47.4672 70.712 48.7797 71.498 49.8415C65.113 58.7721 56.9202 66.3542 47.5 72.0161Z" fill="url(#paint1_linear_111_272)"/>
</g>
<defs>
<linearGradient id="paint0_linear_111_272" x1="118.988" y1="18.0578" x2="21.8967" y2="54.6768" gradientUnits="userSpaceOnUse">
<stop stop-color="#04F4F1"/>
<stop offset="0.1028" stop-color="#0AEEF0"/>
<stop offset="0.2382" stop-color="#1ADEEB"/>
<stop offset="0.392" stop-color="#35C2E4"/>
<stop offset="0.5593" stop-color="#5A9CDB"/>
<stop offset="0.7376" stop-color="#8B6BCF"/>
<stop offset="0.9222" stop-color="#C430C0"/>
<stop offset="1" stop-color="#DF15B9"/>
</linearGradient>
<linearGradient id="paint1_linear_111_272" x1="119.031" y1="19.0667" x2="21.9396" y2="55.6857" gradientUnits="userSpaceOnUse">
<stop stop-color="#04F4F1"/>
<stop offset="0.1028" stop-color="#0AEEF0"/>
<stop offset="0.2382" stop-color="#1ADEEB"/>
<stop offset="0.392" stop-color="#35C2E4"/>
<stop offset="0.5593" stop-color="#5A9CDB"/>
<stop offset="0.7376" stop-color="#8B6BCF"/>
<stop offset="0.9222" stop-color="#C430C0"/>
<stop offset="1" stop-color="#DF15B9"/>
</linearGradient>
</defs>
</svg>
