<svg width="102" height="102" viewBox="0 0 102 102" fill="none" xmlns="http://www.w3.org/2000/svg">
<g clip-path="url(#clip0_44_265)">
<path d="M51 102C79.1665 102 102 79.1665 102 51C102 22.8335 79.1665 0 51 0C22.8335 0 0 22.8335 0 51C0 79.1665 22.8335 102 51 102Z" fill="#13AA52"/>
<path d="M64.6325 44.7684C61.4112 30.5512 53.798 25.8765 52.9782 24.0905C52.0818 22.8305 51.1733 20.5893 51.1733 20.5893C51.1584 20.5514 51.1345 20.4847 51.1066 20.4199C51.014 21.68 50.9661 22.1661 49.7748 23.4371C47.93 24.8794 38.4652 32.8213 37.6952 48.974C36.977 64.0389 48.5775 73.0157 50.1464 74.1602L50.3247 74.2867V74.2757C50.3346 74.3514 50.8227 77.8617 51.1654 81.5811H52.3945C52.6829 78.952 53.1152 76.3406 53.6895 73.7588L53.7891 73.694C54.4908 73.1908 55.1599 72.6435 55.7922 72.0554L55.8639 71.9907C59.1989 68.9098 65.1943 61.7837 65.1356 50.4223C65.1231 48.5271 64.9549 46.6361 64.6325 44.7684ZM51.0349 65.6545C51.0349 65.6545 51.0349 44.5254 51.7321 44.5294C52.276 44.5294 52.9802 71.7835 52.9802 71.7835C52.012 71.667 51.0349 67.2981 51.0349 65.6545Z" fill="white"/>
</g>
<defs>
<clipPath id="clip0_44_265">
<rect width="102" height="102" fill="white"/>
</clipPath>
</defs>
</svg>
