<svg width="112" height="112" viewBox="0 0 112 112" fill="none" xmlns="http://www.w3.org/2000/svg">
<path d="M48.3512 58.1444H55.752L51.8387 51.8486L44.6566 63.2317H41.3879L50.1237 49.5581C50.5036 49.0056 51.1366 48.6719 51.8387 48.6719C52.5178 48.6719 53.1508 48.9941 53.5191 49.5351L62.2895 63.2317H59.0208L57.4785 60.688H49.9856L48.3512 58.1444ZM82.3049 60.688V48.81H79.5311V61.8505C79.5311 62.2073 79.6692 62.5526 79.9339 62.8173C80.1986 63.0821 80.5555 63.2317 80.9468 63.2317H93.596L95.2304 60.688H82.3049ZM36.4157 58.5587C39.109 58.5587 41.2958 56.3834 41.2958 53.6901C41.2958 50.9968 39.109 48.81 36.4157 48.81H24.2809V63.2317H27.0536V51.3536H36.2315C37.5206 51.3536 38.5565 52.401 38.5565 53.6901C38.5565 54.9792 37.5206 56.0266 36.2315 56.0266L28.4118 56.0151L36.6919 63.2317H40.7203L35.1496 58.5587H36.4157ZM7.21206 63.2317C3.2308 63.2317 0 60.009 0 56.0266C0 52.0442 3.2308 48.81 7.21206 48.81H15.5945C19.5769 48.81 22.8054 52.0442 22.8054 56.0266C22.8054 60.009 19.5769 63.2317 15.5945 63.2317H7.21206ZM15.4081 60.688C17.9874 60.688 20.0765 58.6048 20.0765 56.0266C20.0765 53.4484 17.9874 51.3536 15.4081 51.3536H7.39733C4.81915 51.3536 2.72893 53.4484 2.72893 56.0266C2.72893 58.6048 4.81915 60.688 7.39733 60.688H15.4081ZM68.0789 63.2317C64.0965 63.2317 60.8623 60.009 60.8623 56.0266C60.8623 52.0442 64.0965 48.81 68.0789 48.81H78.0348L76.4119 51.3536H68.2631C65.6849 51.3536 63.5901 53.4484 63.5901 56.0266C63.5901 58.6048 65.6849 60.688 68.2631 60.688H78.265L76.6306 63.2317H68.0789ZM101.998 60.688C99.8688 60.688 98.0617 59.2608 97.5092 57.2927H109.364L110.999 54.749H97.5092C98.0617 52.7924 99.8688 51.3536 101.998 51.3536H110.135L111.781 48.81H101.814C97.8316 48.81 94.5974 52.0442 94.5974 56.0266C94.5974 60.009 97.8316 63.2317 101.814 63.2317H110.366L112 60.688H101.998Z" fill="#EA1B22"/>
</svg>
