<svg width="108" height="108" viewBox="0 0 108 108" fill="none" xmlns="http://www.w3.org/2000/svg">
<path d="M79.0475 75.4039C79.7099 69.8917 79.5116 69.0826 83.6173 69.9761L84.6593 70.0672C87.8166 70.2107 91.9468 69.5593 94.3734 68.432C99.597 66.0079 102.694 61.9622 97.5442 63.0244C85.7958 65.4485 84.9884 61.4702 84.9884 61.4702C97.394 43.0638 102.58 19.6979 98.1028 13.9781C85.8937 -1.62199 64.7603 5.75491 64.4068 5.9456L64.2937 5.96669C61.9726 5.48491 59.3747 5.19719 56.4561 5.14994C51.1397 5.06219 47.1057 6.54382 44.0454 8.86413C44.0454 8.86413 6.34415 -6.66846 8.09831 28.3978C8.47125 35.8574 18.7903 84.843 31.0989 70.047C35.5978 64.6368 39.9448 60.062 39.9448 60.062C42.1031 61.4956 44.6884 62.2279 47.3985 61.9647L47.6086 61.7858C47.5428 62.4574 47.5714 63.1147 47.6921 63.8927C44.5221 67.4356 45.4536 68.0574 39.1145 69.3618C32.7004 70.6832 36.4685 73.0364 38.9281 73.6515C41.9107 74.3973 48.8101 75.4537 53.4726 68.9282L53.287 69.6723C54.5307 70.668 54.4472 76.8248 54.6227 81.2233C54.799 85.6226 55.0935 89.7274 55.9904 92.1481C56.8873 94.568 57.9453 100.802 66.2765 99.0163C73.2391 97.5279 78.5624 95.3806 79.0475 75.4039Z" fill="black"/>
<path d="M63.5639 103.369C59.8792 103.369 57.4796 101.944 56.0225 100.568C53.8228 98.4924 52.9504 95.8185 52.4289 94.2213L52.2037 93.5547C51.154 90.7214 50.798 86.6419 50.587 81.3887C50.555 80.5998 50.533 79.7873 50.5086 78.9258C50.4908 78.2955 50.4689 77.5049 50.4368 76.678C49.1094 77.311 47.7003 77.7563 46.2501 78.001C43.6522 78.4449 40.8594 78.3014 37.9477 77.5733C35.8931 77.0594 33.7584 75.9946 32.5417 74.3501C28.9955 77.456 25.6129 77.035 23.7701 76.4199C20.5191 75.3356 17.6099 72.2889 14.8753 67.1074C12.9271 63.416 11.043 58.6066 9.27449 52.8117C6.1948 42.7205 4.23815 32.0918 4.06433 28.602C3.51758 17.6797 6.45805 9.86822 12.8022 5.38707C22.8099 -1.68187 37.973 2.47529 43.5012 4.36276C47.2154 2.12429 51.5852 1.03501 56.5228 1.11347C59.1747 1.15651 61.7001 1.38938 64.0457 1.80788C66.4926 1.03838 71.3256 -0.0660888 76.858 0.00309875C87.0514 0.124599 95.4982 4.09697 101.284 11.4908C105.413 16.7659 103.371 27.8435 101.787 33.9775C99.5583 42.6057 95.6526 51.7824 90.855 59.771C92.1578 59.7803 94.0452 59.6242 96.7283 59.0698C102.022 57.9772 103.57 60.8155 103.991 62.0862C105.674 67.1842 98.3568 71.0367 96.0744 72.0965C93.15 73.4541 88.382 74.281 84.4771 74.1021L84.3067 74.0911L83.2807 74.0008L83.1794 74.8564L83.0815 75.6925C82.8191 85.8167 81.3729 92.2284 78.397 96.4648C75.2777 100.906 70.9425 102.151 67.1237 102.969C65.8209 103.248 64.6372 103.369 63.5639 103.369ZM55.8098 66.5218C58.1884 68.4253 58.3968 72.007 58.5832 78.7005C58.6069 79.5358 58.6288 80.3264 58.6583 81.0647C58.7478 83.3006 58.9579 88.5361 59.778 90.7484C59.8936 91.0614 59.9974 91.3787 60.1071 91.7154C61.0208 94.5132 61.479 95.9164 65.4303 95.0718C68.7471 94.3605 70.4523 93.7226 71.7871 91.8225C73.7269 89.0601 74.8119 83.5031 75.0111 75.3061L79.0467 75.404L75.0389 74.923L75.157 73.9224C75.5409 70.6233 75.8177 68.2405 78.0224 66.6644C79.7917 65.4005 81.8075 65.5228 83.4131 65.8122C81.6488 64.4791 81.1612 62.9156 81.0312 62.2744L80.6946 60.6164L81.6404 59.2133C87.0885 51.1301 91.5806 41.1958 93.9668 31.9568C96.4187 22.4637 95.6711 17.4223 94.9236 16.4689C85.0272 3.8236 67.8662 9.04472 66.0741 9.63704L65.7712 9.80072L64.2524 10.0834L63.4745 9.92222C61.3297 9.47672 58.9469 9.23035 56.3929 9.18901C52.38 9.12151 49.1425 10.0699 46.4881 12.0839L44.6462 13.4803L42.509 12.6003C37.9426 10.7331 24.5303 6.97922 17.453 11.9919C13.5245 14.7746 11.7349 20.2269 12.1331 28.1979C12.2647 30.8295 14.0526 40.7917 17.0024 50.4534C21.0786 63.8058 24.7826 68.2414 26.3292 68.7569C26.5992 68.848 27.2995 68.3038 27.9965 67.4668C30.9023 63.9833 33.9114 60.5871 37.0195 57.2828L39.3567 54.8232L42.1824 56.7006C43.3215 57.4574 44.5778 57.8869 45.8679 57.9679L52.607 52.2203L51.6307 62.1833C51.6088 62.4069 51.5978 62.7114 51.6856 63.2768L51.9792 65.1651L50.7052 66.5893L50.5583 66.7547L54.2607 68.4633L55.8098 66.5218Z" fill="black"/>
<path d="M97.5443 63.0244C85.7951 65.4485 84.9876 61.4702 84.9876 61.4702C97.3932 43.063 102.579 19.6962 98.1037 13.9781C85.8946 -1.62115 64.7595 5.75575 64.4068 5.94728L64.2929 5.96753C61.9718 5.48575 59.3739 5.19888 56.4537 5.15163C51.1372 5.06472 47.1049 6.5455 44.0446 8.86581C44.0446 8.86581 6.3425 -6.66593 8.09581 28.3995C8.46875 35.8599 18.7878 84.8455 31.0964 70.0495C35.5953 64.6394 39.9415 60.0646 39.9415 60.0646C42.1006 61.4981 44.685 62.2305 47.3943 61.9672L47.6052 61.7883C47.5394 62.46 47.5698 63.1172 47.6896 63.8952C44.5188 67.4381 45.4503 68.0599 39.1112 69.3644C32.697 70.6857 36.4652 73.0389 38.9256 73.654C41.9074 74.3999 48.8076 75.4562 53.4693 68.9307L53.2828 69.6749C54.5257 70.6705 55.3981 76.1481 55.2522 81.1136C55.1053 86.079 55.0075 89.4886 55.9871 92.1515C56.9658 94.8144 57.9412 100.805 66.2741 99.0196C73.2367 97.5279 76.8446 93.661 77.3474 87.2114C77.7035 82.6256 78.5093 83.3039 78.5608 79.2042L79.2079 77.2635C79.9538 71.0476 79.326 69.0429 83.6165 69.9752L84.6585 70.0664C87.8158 70.2098 91.9477 69.5584 94.3735 68.4312C99.5963 66.0088 102.694 61.9621 97.5443 63.0244Z" fill="#336791"/>
<path d="M63.985 100.881C57.0392 100.881 54.8387 95.3805 53.9384 93.1311C52.6205 89.8345 52.3361 77.0416 52.6298 66.5504C52.6341 66.3735 52.6735 66.1992 52.7455 66.0375C52.8175 65.8759 52.9208 65.7301 53.0494 65.6085C53.178 65.4869 53.3294 65.392 53.4949 65.3292C53.6604 65.2664 53.8366 65.237 54.0135 65.2426C54.1902 65.2474 54.3643 65.287 54.5257 65.3591C54.6871 65.4313 54.8326 65.5345 54.9541 65.6629C55.0756 65.7914 55.1705 65.9425 55.2335 66.1077C55.2966 66.2728 55.3264 66.4488 55.3213 66.6255C54.983 78.7257 55.4631 89.6911 56.4385 92.1312C57.9606 95.9357 60.2691 99.2635 66.7955 97.8654C72.9911 96.5365 75.3115 94.1875 76.345 88.196C77.1382 83.5984 78.7067 70.5186 78.8999 67.9376C78.9128 67.7612 78.9604 67.5891 79.04 67.4311C79.1196 67.2732 79.2295 67.1325 79.3635 67.0171C79.4976 66.9017 79.6531 66.8139 79.8211 66.7587C79.9891 66.7036 80.1664 66.6821 80.3427 66.6955C80.6986 66.7225 81.0293 66.8896 81.2621 67.1601C81.495 67.4306 81.611 67.7824 81.5847 68.1384C81.3831 70.8257 79.8221 83.8802 78.9986 88.6541C77.7786 95.7307 74.6238 98.9403 67.36 100.498C66.1255 100.762 65.0042 100.88 63.985 100.881ZM26.3233 74.0151C25.7162 74.013 25.1134 73.9133 24.538 73.7198C20.0264 72.2145 15.7292 64.8671 11.7653 51.8793C8.74802 41.9931 6.83608 31.674 6.66818 28.3201C6.17121 18.3774 8.73114 11.343 14.2788 7.41367C25.2535 -0.362326 43.7155 7.04242 44.496 7.36136C44.8266 7.49641 45.0901 7.75727 45.2284 8.08655C45.3667 8.41584 45.3685 8.78658 45.2335 9.1172C45.0984 9.44783 44.8375 9.71127 44.5083 9.84957C44.179 9.98787 43.8082 9.98969 43.4776 9.85464C43.2996 9.78208 25.596 2.68952 15.8296 9.61417C11.0861 12.9774 8.90833 19.2262 9.35636 28.186C9.49727 31.0117 11.2835 41.0827 14.3396 51.0929C17.8782 62.6877 21.9055 70.0039 25.3893 71.1657C25.9361 71.348 27.5999 71.9023 29.9785 69.042C32.7522 65.7108 35.63 62.4675 38.6075 59.317C38.8566 59.0685 39.1931 58.9273 39.545 58.9238C39.8969 58.9203 40.2361 59.0547 40.4902 59.2981C40.7443 59.5416 40.8929 59.8749 40.9044 60.2266C40.9158 60.5783 40.7892 60.9205 40.5515 61.18C40.511 61.2221 36.4618 65.4552 32.049 70.7641C29.959 73.2776 27.956 74.0151 26.3233 74.0151ZM84.904 62.6709C84.66 62.6705 84.4206 62.6039 84.2114 62.478C84.0023 62.3522 83.8313 62.1718 83.7168 61.9563C83.6022 61.7408 83.5484 61.4982 83.561 61.2544C83.5737 61.0107 83.6524 60.775 83.7886 60.5725C96.3293 41.9635 100.731 19.4785 96.9612 14.6606C92.216 8.59746 85.5158 5.43086 77.0454 5.24777C70.7738 5.11277 65.7889 6.7142 64.9738 6.99349L64.7688 7.07702C63.9495 7.33436 63.3209 6.88549 63.0838 6.36067C62.9486 6.05999 62.9282 5.72023 63.0262 5.40548C63.1243 5.09073 63.3342 4.82275 63.6162 4.65208C63.655 4.6293 63.7782 4.57699 63.9782 4.50358C65.3628 3.99649 70.4236 2.47774 76.6918 2.54945C86.0642 2.64902 93.8064 6.2628 99.0799 13.0018C101.575 16.1904 101.581 23.536 99.0959 33.1565C96.563 42.9651 91.7966 53.5061 86.0203 62.0777C85.7621 62.4633 85.3369 62.6709 84.904 62.6709ZM85.5453 71.2856C83.4039 71.2856 81.4843 70.9835 80.3351 70.295C79.1539 69.5871 78.9286 68.6252 78.8991 68.1147C78.5768 62.4532 81.7003 61.4677 83.2933 61.018C83.0714 60.6821 82.7559 60.2873 82.4293 59.8797C81.5004 58.7187 80.228 57.1291 79.2475 54.7514C79.094 54.3802 78.613 53.517 78.0562 52.5172C75.0364 47.102 68.753 35.8337 72.7895 30.0633C74.6575 27.3928 78.3776 26.3415 83.8586 26.9279C82.2462 22.0156 74.5681 6.64924 56.349 6.35055C50.8697 6.25942 46.3759 7.94439 42.9992 11.354C35.4392 18.9891 35.7126 32.8038 35.7168 32.9422C35.7215 33.1189 35.6912 33.2948 35.6279 33.4599C35.5646 33.6249 35.4694 33.7759 35.3477 33.9042C35.226 34.0324 35.0803 34.1355 34.9188 34.2074C34.7573 34.2793 34.5832 34.3187 34.4065 34.3234C34.2297 34.328 34.0538 34.2978 33.8887 34.2345C33.7237 34.1712 33.5727 34.076 33.4445 33.9543C33.3162 33.8326 33.2132 33.6869 33.1412 33.5254C33.0693 33.3639 33.0299 33.1898 33.0252 33.013C33.0084 32.3996 32.7265 17.9023 41.0864 9.45892C44.9989 5.50764 50.1491 3.55689 56.3937 3.65899C68.0493 3.85052 75.5519 9.77617 79.7926 14.713C84.4155 20.0935 86.6818 26.0285 86.8683 28.0096C87.0075 29.4828 85.9503 29.7773 85.7368 29.8211L85.2508 29.8321C79.8719 28.9706 76.421 29.5689 74.9942 31.6074C71.9238 35.9957 77.868 46.6548 80.406 51.2068C81.054 52.3678 81.5215 53.2074 81.7358 53.7254C82.5694 55.747 83.657 57.1055 84.5303 58.1973C85.2989 59.1575 85.9646 59.9903 86.2026 60.9673C86.3131 61.1614 87.8816 63.4817 97.189 61.5605C99.522 61.0796 100.921 61.4905 101.349 62.7839C102.19 65.3278 97.47 68.2953 94.8569 69.5086C92.5155 70.5971 88.7785 71.2856 85.5453 71.2856ZM81.583 67.8928C81.8784 68.1907 83.3558 68.7045 86.4152 68.5729C89.1355 68.4565 92.0042 67.865 93.7255 67.066C95.9268 66.0433 97.3966 64.9001 98.1577 64.1196L97.7358 64.1972C91.7848 65.4257 87.5754 65.262 85.2247 63.7104C85.0667 63.606 84.9146 63.493 84.769 63.372C84.5142 63.4724 84.2788 63.5382 84.1109 63.5855C82.7778 63.9593 81.3991 64.3465 81.583 67.8928ZM43.1401 75.4149C41.6619 75.4149 40.106 75.2132 38.5172 74.8158C36.871 74.4041 34.096 73.1646 34.1381 71.1286C34.1862 68.8446 37.5081 68.1595 38.7585 67.9021C43.276 66.9715 43.5704 66.5985 44.982 64.8056C45.3938 64.2833 45.9059 63.6327 46.6045 62.8531C47.6415 61.6921 48.7747 61.104 49.9728 61.104C50.8073 61.104 51.4916 61.3867 51.9438 61.5748C53.3849 62.1722 54.5873 63.6167 55.0817 65.3439C55.528 66.9023 55.3146 68.4025 54.4826 69.5677C51.7514 73.3924 47.8288 75.4149 43.1401 75.4149ZM37.0465 71.2442C37.4524 71.5581 38.2658 71.9774 39.1711 72.2036C40.5473 72.5478 41.8821 72.7225 43.141 72.7225C46.9766 72.7225 50.0563 71.1345 52.2931 68.0025C52.7597 67.3495 52.6196 66.5201 52.4948 66.0838C52.2332 65.1701 51.5835 64.339 50.9144 64.0614C50.5516 63.9112 50.2504 63.7964 49.9736 63.7964C49.8251 63.7964 49.3729 63.7964 48.6118 64.6478C48.0866 65.2384 47.5818 65.8468 47.0981 66.472C45.3398 68.7045 44.534 69.4622 39.3027 70.5397C38.0261 70.8012 37.3714 71.0679 37.0465 71.2442ZM47.3985 65.0342C47.0771 65.0337 46.7665 64.9183 46.5228 64.7087C46.2791 64.4992 46.1183 64.2094 46.0696 63.8918C46.0361 63.6683 46.0136 63.4433 46.0021 63.2176C42.5731 63.1535 39.2648 61.682 36.7529 59.0613C33.577 55.7479 32.1317 51.1571 32.7881 46.4666C33.5011 41.3729 33.2345 36.8766 33.091 34.4609C33.0514 33.7893 33.0227 33.3041 33.0244 32.9683C33.0269 32.5422 33.0354 31.4125 36.812 29.498C38.1552 28.8171 40.8485 27.6291 43.7906 27.3245C48.665 26.8208 51.878 28.9917 52.8399 33.4383C55.4361 45.4432 53.0457 50.7529 51.3 54.6308C50.9752 55.353 50.668 56.0348 50.4225 56.6954L50.2057 57.2776C49.2835 59.7506 48.4861 61.887 48.7308 63.4826C48.7577 63.6573 48.7498 63.8356 48.7078 64.0073C48.6657 64.1791 48.5902 64.3408 48.4856 64.4833C48.381 64.6259 48.2493 64.7464 48.0981 64.838C47.9469 64.9296 47.7791 64.9906 47.6044 65.0173L47.3985 65.0342ZM35.7252 33.3413L35.7775 34.3023C35.9261 36.8116 36.2028 41.4809 35.4535 46.8404C34.9127 50.709 36.094 54.4848 38.6961 57.1983C40.7523 59.3431 43.4582 60.5269 46.2392 60.5269H46.2966C46.6079 59.2149 47.1251 57.8294 47.682 56.3368L47.8972 55.758C48.1748 55.0121 48.4996 54.2899 48.8439 53.5255C50.5238 49.7927 52.6154 45.1462 50.2065 34.0078C49.7298 31.8014 48.573 30.5248 46.672 30.1038C42.7672 29.2415 36.9478 32.1786 35.7252 33.3413ZM43.8506 32.77C43.7831 33.2459 44.7221 34.5166 45.9473 34.6862C47.1699 34.8575 48.2161 33.8635 48.2828 33.3877C48.3494 32.9118 47.4112 32.387 46.186 32.2165C44.9618 32.0461 43.9155 32.2942 43.8506 32.77ZM46.2282 35.1545L45.8848 35.1309C45.1255 35.0254 44.3576 34.547 43.832 33.85C43.6472 33.6054 43.346 33.1312 43.4059 32.7076C43.4911 32.0866 44.2488 31.7145 45.4309 31.7145C45.695 31.7145 45.97 31.7339 46.2468 31.7727C46.8931 31.8622 47.493 32.0486 47.936 32.2959C48.7038 32.7245 48.7603 33.2029 48.7257 33.4501C48.6312 34.1361 47.5403 35.1545 46.2282 35.1545ZM44.2969 32.8494C44.3349 33.143 45.0622 34.1116 46.0089 34.2424L46.2291 34.2576C47.1032 34.2576 47.7563 33.5699 47.833 33.3446C47.752 33.1911 47.1901 32.8097 46.1245 32.6612C45.895 32.6283 45.6635 32.6117 45.4317 32.6114C44.7466 32.6114 44.383 32.7658 44.2969 32.8494ZM81.0886 31.7989C81.1553 32.2748 80.217 33.5455 78.9927 33.7159C77.7693 33.8863 76.7222 32.8932 76.6547 32.4174C76.5906 31.9415 77.5288 31.4158 78.7523 31.2462C79.9757 31.075 81.0211 31.3239 81.0886 31.7989ZM78.7101 33.9589C77.5322 33.9589 76.5155 33.0426 76.432 32.4477C76.3349 31.7339 77.5103 31.1914 78.7202 31.0235C78.9868 30.9864 79.2509 30.9678 79.5049 30.9678C80.5495 30.9678 81.2413 31.2741 81.3105 31.7685C81.3552 32.0883 81.1097 32.5819 80.687 33.0274C80.4077 33.3202 79.8213 33.8273 79.0223 33.9378L78.7101 33.9589ZM79.5057 31.4167C79.2729 31.4167 79.0299 31.4344 78.7835 31.4681C77.5676 31.6377 76.842 32.1254 76.8774 32.387C76.918 32.6747 77.6942 33.5109 78.7109 33.5109L78.9615 33.4931C79.6255 33.4012 80.1242 32.9675 80.3621 32.7177C80.7359 32.3254 80.8844 31.9558 80.8667 31.8301C80.8431 31.663 80.3942 31.4167 79.5057 31.4167ZM82.8512 59.128C82.6073 59.1281 82.3679 59.0619 82.1587 58.9365C81.9496 58.811 81.7784 58.6311 81.6637 58.4158C81.5489 58.2006 81.4948 57.9582 81.5072 57.7146C81.5196 57.471 81.598 57.2354 81.7341 57.0329C84.6011 52.7509 84.0763 48.3845 83.5692 44.1615C83.3524 42.3626 83.1296 40.5022 83.187 38.7168C83.2461 36.88 83.4798 35.3646 83.7051 33.899C83.9725 32.1625 84.2257 30.5223 84.121 28.5749C84.1115 28.3984 84.1368 28.2218 84.1956 28.055C84.2543 27.8883 84.3453 27.7348 84.4634 27.6033C84.5815 27.4717 84.7243 27.3647 84.8837 27.2883C85.0432 27.212 85.2161 27.1678 85.3926 27.1583C85.5691 27.1487 85.7457 27.1741 85.9125 27.2328C86.0792 27.2916 86.2327 27.3826 86.3643 27.5006C86.4958 27.6187 86.6028 27.7615 86.6792 27.921C86.7555 28.0804 86.7997 28.2533 86.8092 28.4298C86.929 30.6556 86.643 32.5119 86.3663 34.3082C86.1528 35.6945 85.9317 37.128 85.8786 38.8029C85.8271 40.384 86.0288 42.0631 86.2422 43.84C86.7822 48.3305 87.394 53.42 83.9717 58.5306C83.8485 58.7146 83.6817 58.8654 83.4863 58.9696C83.2908 59.0738 83.0727 59.1282 82.8512 59.128Z" fill="white"/>
</svg>
