<svg width="33" height="32" viewBox="0 0 33 32" fill="none" xmlns="http://www.w3.org/2000/svg">
<path d="M1.16675 16C1.16675 7.43959 8.10633 0.5 16.6667 0.5C25.2272 0.5 32.1667 7.43959 32.1667 16C32.1667 24.5604 25.2272 31.5 16.6667 31.5C8.10633 31.5 1.16675 24.5604 1.16675 16Z" stroke="black"/>
<g clip-path="url(#clip0_282_585)">
<path d="M23.6934 12.2801C23.6142 11.9637 23.4529 11.6738 23.2258 11.4397C22.9987 11.2056 22.7139 11.0355 22.4001 10.9467C21.2534 10.6667 16.6667 10.6667 16.6667 10.6667C16.6667 10.6667 12.0801 10.6667 10.9334 10.9734C10.6196 11.0622 10.3347 11.2322 10.1076 11.4664C9.88053 11.7005 9.71925 11.9904 9.64006 12.3067C9.4302 13.4705 9.32755 14.651 9.33339 15.8334C9.32591 17.0248 9.42857 18.2143 9.64006 19.3867C9.72736 19.6933 9.89226 19.9722 10.1188 20.1964C10.3454 20.4206 10.6259 20.5826 10.9334 20.6667C12.0801 20.9734 16.6667 20.9734 16.6667 20.9734C16.6667 20.9734 21.2534 20.9734 22.4001 20.6667C22.7139 20.578 22.9987 20.4079 23.2258 20.1738C23.4529 19.9397 23.6142 19.6498 23.6934 19.3334C23.9016 18.1785 24.0043 17.007 24.0001 15.8334C24.0075 14.6421 23.9049 13.4525 23.6934 12.2801V12.2801Z" stroke="black" stroke-linecap="round" stroke-linejoin="round"/>
<path d="M15.1667 18.0133L19.0001 15.8333L15.1667 13.6533V18.0133Z" stroke="black" stroke-linecap="round" stroke-linejoin="round"/>
</g>
<defs>
<clipPath id="clip0_282_585">
<rect width="16" height="16" fill="white" transform="translate(8.66675 8)"/>
</clipPath>
</defs>
</svg>
